G04 Layer_Physical_Order=2*
G04 Layer_Color=16711680*
%FSLAX25Y25*%
%MOIN*%
G70*
G01*
G75*
%ADD10C,0.00600*%
%ADD14R,0.03500X0.03500*%
%ADD15R,0.03150X0.03347*%
%ADD37R,0.03347X0.03150*%
%ADD46R,0.02953X0.03543*%
%ADD47R,0.03500X0.03500*%
%ADD48C,0.00700*%
%ADD49C,0.01000*%
%ADD50C,0.01500*%
%ADD52C,0.00800*%
%ADD57C,0.06000*%
%ADD60C,0.01200*%
%ADD61C,0.05906*%
%ADD62R,0.05906X0.05906*%
%ADD63O,0.07087X0.06299*%
%ADD64R,0.07087X0.06299*%
%ADD65C,0.04400*%
%ADD66C,0.18000*%
%ADD67O,0.06102X0.03543*%
%ADD68O,0.03740X0.04921*%
%ADD69R,0.07000X0.07000*%
%ADD70C,0.07000*%
%ADD71R,0.07000X0.07000*%
%ADD72R,0.03937X0.03937*%
%ADD73C,0.03937*%
%ADD74R,0.04000X0.04000*%
%ADD75C,0.04000*%
%ADD76O,0.06299X0.07500*%
%ADD77R,0.06299X0.07500*%
%ADD78C,0.07000*%
%ADD79R,0.06000X0.07500*%
%ADD80C,0.02400*%
%ADD81C,0.03200*%
%ADD82R,0.02362X0.06299*%
G04:AMPARAMS|DCode=83|XSize=23.62mil|YSize=62.99mil|CornerRadius=5.91mil|HoleSize=0mil|Usage=FLASHONLY|Rotation=0.000|XOffset=0mil|YOffset=0mil|HoleType=Round|Shape=RoundedRectangle|*
%AMROUNDEDRECTD83*
21,1,0.02362,0.05118,0,0,0.0*
21,1,0.01181,0.06299,0,0,0.0*
1,1,0.01181,0.00591,-0.02559*
1,1,0.01181,-0.00591,-0.02559*
1,1,0.01181,-0.00591,0.02559*
1,1,0.01181,0.00591,0.02559*
%
%ADD83ROUNDEDRECTD83*%
G04:AMPARAMS|DCode=84|XSize=31.5mil|YSize=35.43mil|CornerRadius=7.87mil|HoleSize=0mil|Usage=FLASHONLY|Rotation=180.000|XOffset=0mil|YOffset=0mil|HoleType=Round|Shape=RoundedRectangle|*
%AMROUNDEDRECTD84*
21,1,0.03150,0.01969,0,0,180.0*
21,1,0.01575,0.03543,0,0,180.0*
1,1,0.01575,-0.00787,0.00984*
1,1,0.01575,0.00787,0.00984*
1,1,0.01575,0.00787,-0.00984*
1,1,0.01575,-0.00787,-0.00984*
%
%ADD84ROUNDEDRECTD84*%
%ADD85R,0.03150X0.03543*%
G04:AMPARAMS|DCode=86|XSize=30mil|YSize=35mil|CornerRadius=7.5mil|HoleSize=0mil|Usage=FLASHONLY|Rotation=0.000|XOffset=0mil|YOffset=0mil|HoleType=Round|Shape=RoundedRectangle|*
%AMROUNDEDRECTD86*
21,1,0.03000,0.02000,0,0,0.0*
21,1,0.01500,0.03500,0,0,0.0*
1,1,0.01500,0.00750,-0.01000*
1,1,0.01500,-0.00750,-0.01000*
1,1,0.01500,-0.00750,0.01000*
1,1,0.01500,0.00750,0.01000*
%
%ADD86ROUNDEDRECTD86*%
%ADD87R,0.04000X0.04000*%
G04:AMPARAMS|DCode=88|XSize=30mil|YSize=35mil|CornerRadius=7.5mil|HoleSize=0mil|Usage=FLASHONLY|Rotation=270.000|XOffset=0mil|YOffset=0mil|HoleType=Round|Shape=RoundedRectangle|*
%AMROUNDEDRECTD88*
21,1,0.03000,0.02000,0,0,270.0*
21,1,0.01500,0.03500,0,0,270.0*
1,1,0.01500,-0.01000,-0.00750*
1,1,0.01500,-0.01000,0.00750*
1,1,0.01500,0.01000,0.00750*
1,1,0.01500,0.01000,-0.00750*
%
%ADD88ROUNDEDRECTD88*%
G04:AMPARAMS|DCode=89|XSize=31.5mil|YSize=33.47mil|CornerRadius=0mil|HoleSize=0mil|Usage=FLASHONLY|Rotation=45.000|XOffset=0mil|YOffset=0mil|HoleType=Round|Shape=Rectangle|*
%AMROTATEDRECTD89*
4,1,4,0.00070,-0.02297,-0.02297,0.00070,-0.00070,0.02297,0.02297,-0.00070,0.00070,-0.02297,0.0*
%
%ADD89ROTATEDRECTD89*%

G04:AMPARAMS|DCode=90|XSize=31.5mil|YSize=33.47mil|CornerRadius=0mil|HoleSize=0mil|Usage=FLASHONLY|Rotation=135.000|XOffset=0mil|YOffset=0mil|HoleType=Round|Shape=Rectangle|*
%AMROTATEDRECTD90*
4,1,4,0.02297,0.00070,-0.00070,-0.02297,-0.02297,-0.00070,0.00070,0.02297,0.02297,0.00070,0.0*
%
%ADD90ROTATEDRECTD90*%

%ADD91O,0.01772X0.05512*%
%ADD92R,0.01772X0.05512*%
G36*
X73335Y17281D02*
X73251Y16859D01*
X73160Y16749D01*
X72646Y16354D01*
X72229Y15811D01*
X71967Y15179D01*
X71878Y14500D01*
X71901Y14322D01*
X68143Y10564D01*
X67643D01*
X63670Y14536D01*
X63388Y14254D01*
X62434Y15207D01*
X60614Y13386D01*
X60260Y13740D01*
X59907Y13386D01*
X58016Y15277D01*
X57039Y14299D01*
X56539Y14506D01*
Y22547D01*
X57001Y22738D01*
X57016Y22723D01*
X58907Y24613D01*
X59260Y24260D01*
X59614Y24613D01*
X61434Y22793D01*
X62388Y23746D01*
X62670Y23463D01*
X64908Y25701D01*
X64916D01*
X73335Y17281D01*
D02*
G37*
G36*
X100638Y55155D02*
X100646Y55146D01*
X101189Y54729D01*
X101821Y54467D01*
X102500Y54378D01*
X103179Y54467D01*
X103811Y54729D01*
X103914Y54808D01*
X120092D01*
X127650Y47250D01*
X121450Y41050D01*
X120975Y40339D01*
X120808Y39500D01*
Y31414D01*
X120729Y31311D01*
X120467Y30679D01*
X120378Y30000D01*
X120467Y29321D01*
X120729Y28689D01*
X120808Y28586D01*
Y26914D01*
X120729Y26811D01*
X120467Y26179D01*
X120378Y25500D01*
X120467Y24821D01*
X120729Y24189D01*
X120808Y24086D01*
Y22414D01*
X120729Y22311D01*
X120467Y21679D01*
X120378Y21000D01*
X120467Y20321D01*
X120729Y19689D01*
X120808Y19586D01*
Y17908D01*
X119592Y16692D01*
X103500D01*
X102661Y16525D01*
X101950Y16050D01*
X100092Y14192D01*
X79539D01*
Y16000D01*
X79539Y16000D01*
X79384Y16780D01*
X78942Y17442D01*
X77936Y18447D01*
X78170Y18921D01*
X78500Y18878D01*
X79179Y18967D01*
X79811Y19229D01*
X80354Y19646D01*
X80771Y20189D01*
X81033Y20821D01*
X81122Y21500D01*
X81033Y22179D01*
X80771Y22811D01*
X80354Y23354D01*
X79811Y23771D01*
X79179Y24033D01*
X78500Y24122D01*
X78349Y24103D01*
X75050Y27401D01*
X75271Y27689D01*
X75533Y28321D01*
X75622Y29000D01*
X75554Y29523D01*
X75868Y30023D01*
X77756D01*
X78419Y30155D01*
X78982Y30530D01*
X81482Y33030D01*
X81857Y33593D01*
X81989Y34256D01*
Y37038D01*
X100139Y55188D01*
X100638Y55155D01*
D02*
G37*
G36*
X-14623Y17343D02*
X-14215Y17030D01*
X-13388Y16687D01*
X-12500Y16571D01*
X-11613Y16687D01*
X-10785Y17030D01*
X-10377Y17343D01*
X-10176Y17446D01*
X-9741Y17247D01*
X-9733Y17239D01*
Y10518D01*
X-9866Y10424D01*
X-10366Y10683D01*
Y12772D01*
X-12342D01*
Y10000D01*
X-13342D01*
Y12772D01*
X-13767D01*
Y14470D01*
X-13899Y15133D01*
X-14274Y15696D01*
X-15394Y16815D01*
X-15340Y17307D01*
X-14957Y17514D01*
X-14623Y17343D01*
D02*
G37*
G36*
X141173Y54856D02*
Y-11687D01*
X132554Y-20307D01*
X5968D01*
Y-18000D01*
X3000D01*
Y-17000D01*
X5968D01*
Y-14532D01*
X6288Y-14164D01*
X14226Y-6226D01*
X14601Y-5663D01*
X14733Y-5000D01*
Y2782D01*
X16326Y4374D01*
X16701Y4937D01*
X16833Y5600D01*
Y9382D01*
X17349Y9898D01*
X17500Y9878D01*
X18179Y9967D01*
X18811Y10229D01*
X19354Y10646D01*
X19689Y11081D01*
X20257Y11219D01*
X21738Y9738D01*
X21738Y9738D01*
X22317Y9352D01*
X23000Y9216D01*
X23000Y9216D01*
X27511D01*
X27729Y8689D01*
X28146Y8146D01*
X28689Y7729D01*
X29321Y7467D01*
X30000Y7378D01*
X30679Y7467D01*
X30950Y7579D01*
X31407Y7228D01*
X31378Y7000D01*
X31467Y6321D01*
X31729Y5689D01*
X32146Y5146D01*
X32689Y4729D01*
X33321Y4467D01*
X34000Y4378D01*
X34679Y4467D01*
X34846Y4536D01*
X35146Y4146D01*
X35536Y3846D01*
X35467Y3679D01*
X35378Y3000D01*
X35467Y2321D01*
X35729Y1689D01*
X36146Y1146D01*
X36689Y729D01*
X37321Y467D01*
X38000Y378D01*
X38679Y467D01*
X39311Y729D01*
X39614Y961D01*
X41000D01*
X41780Y1116D01*
X42442Y1558D01*
X43029Y2145D01*
X43690Y1483D01*
X44726Y2519D01*
X45020Y2461D01*
X45020Y2461D01*
X46957D01*
X47737Y2616D01*
X48399Y3058D01*
X54600Y9259D01*
X55072D01*
X56907Y11093D01*
X57614Y10386D01*
X55793Y8566D01*
X56746Y7612D01*
X56463Y7330D01*
X58960Y4833D01*
X58862Y4343D01*
X58689Y4271D01*
X58146Y3854D01*
X57729Y3311D01*
X57467Y2679D01*
X57378Y2000D01*
X57467Y1321D01*
X57729Y689D01*
X58146Y146D01*
X58267Y53D01*
Y-4553D01*
X58146Y-4646D01*
X57729Y-5189D01*
X57467Y-5821D01*
X57378Y-6500D01*
X57467Y-7179D01*
X57729Y-7811D01*
X58146Y-8354D01*
X58689Y-8771D01*
X59321Y-9033D01*
X60000Y-9122D01*
X60679Y-9033D01*
X61311Y-8771D01*
X61854Y-8354D01*
X62271Y-7811D01*
X62533Y-7179D01*
X62622Y-6500D01*
X62533Y-5821D01*
X62271Y-5189D01*
X61854Y-4646D01*
X61733Y-4553D01*
Y53D01*
X61854Y146D01*
X62271Y689D01*
X62344Y864D01*
X62689Y1229D01*
X62951Y1120D01*
X63321Y967D01*
X64000Y878D01*
X64679Y967D01*
X65267Y1211D01*
X65633Y1079D01*
X65767Y1013D01*
Y-2000D01*
X65899Y-2663D01*
X66274Y-3226D01*
X66398Y-3349D01*
X66378Y-3500D01*
X66467Y-4179D01*
X66729Y-4811D01*
X67146Y-5354D01*
X67689Y-5771D01*
X68321Y-6033D01*
X69000Y-6122D01*
X69679Y-6033D01*
X70311Y-5771D01*
X70854Y-5354D01*
X71271Y-4811D01*
X71533Y-4179D01*
X71622Y-3500D01*
X71533Y-2821D01*
X71271Y-2189D01*
X71202Y-2098D01*
X71423Y-1650D01*
X76550D01*
Y2199D01*
X76618Y2267D01*
X77250D01*
Y2000D01*
X82750D01*
Y3350D01*
X83150D01*
Y9650D01*
X83585Y9808D01*
X101000D01*
X101839Y9975D01*
X102550Y10450D01*
X104408Y12308D01*
X117327D01*
X117427Y11808D01*
X116274Y11330D01*
X114573Y10288D01*
X113056Y8992D01*
X111760Y7474D01*
X110717Y5773D01*
X109953Y3930D01*
X109487Y1989D01*
X109331Y0D01*
X109487Y-1989D01*
X109953Y-3930D01*
X110717Y-5773D01*
X111760Y-7474D01*
X113056Y-8992D01*
X114573Y-10288D01*
X116274Y-11330D01*
X118118Y-12094D01*
X120058Y-12560D01*
X122047Y-12717D01*
X124037Y-12560D01*
X125977Y-12094D01*
X127821Y-11330D01*
X129522Y-10288D01*
X131039Y-8992D01*
X132335Y-7474D01*
X133378Y-5773D01*
X134142Y-3930D01*
X134607Y-1989D01*
X134764Y0D01*
X134607Y1989D01*
X134142Y3930D01*
X133378Y5773D01*
X132335Y7474D01*
X131039Y8992D01*
X129522Y10288D01*
X127821Y11330D01*
X125977Y12094D01*
X124037Y12560D01*
X122489Y12682D01*
X122298Y13198D01*
X124550Y15450D01*
X125025Y16161D01*
X125192Y17000D01*
Y19586D01*
X125271Y19689D01*
X125533Y20321D01*
X125622Y21000D01*
X125533Y21679D01*
X125271Y22311D01*
X125192Y22414D01*
Y24086D01*
X125271Y24189D01*
X125533Y24821D01*
X125622Y25500D01*
X125533Y26179D01*
X125289Y26769D01*
X125383Y27032D01*
X125502Y27269D01*
X127025D01*
Y26388D01*
X127425D01*
Y25039D01*
X132575D01*
Y26388D01*
X132975D01*
Y32534D01*
X127025D01*
Y31653D01*
X125192D01*
Y38592D01*
X132300Y45700D01*
X132300Y45700D01*
X140050Y53450D01*
X140525Y54161D01*
X140673Y54905D01*
X141173Y54856D01*
D02*
G37*
G36*
X43620Y62398D02*
X43775Y61621D01*
X44214Y60962D01*
X44507Y60767D01*
Y51377D01*
X44007Y51056D01*
X43500Y51122D01*
X42821Y51033D01*
X42189Y50771D01*
X41646Y50354D01*
X41229Y49811D01*
X40967Y49179D01*
X40878Y48500D01*
X40967Y47821D01*
X41229Y47189D01*
X41646Y46646D01*
X41767Y46553D01*
Y46500D01*
X41899Y45837D01*
X42274Y45274D01*
X42854Y44695D01*
X42662Y44233D01*
X34000D01*
X33337Y44101D01*
X32774Y43726D01*
X29782Y40733D01*
X29134D01*
Y41500D01*
X26657D01*
Y42000D01*
X26157D01*
Y44772D01*
X24219D01*
Y45172D01*
X12627D01*
Y48263D01*
X13405D01*
X13425Y48161D01*
X13900Y47450D01*
X14611Y46975D01*
X15450Y46808D01*
X16950D01*
X17789Y46975D01*
X18500Y47450D01*
X18975Y48161D01*
X19142Y49000D01*
Y51000D01*
X18975Y51839D01*
X18958Y51865D01*
X19259Y52315D01*
X19500Y52267D01*
X23000D01*
Y51000D01*
X29000D01*
Y52267D01*
X31039D01*
X31703Y52399D01*
X32265Y52774D01*
X34516Y55025D01*
X38113D01*
Y55425D01*
X39461D01*
Y58000D01*
X39961D01*
Y58500D01*
X42634D01*
Y60575D01*
X41341D01*
Y67494D01*
X43620D01*
Y62398D01*
D02*
G37*
G36*
X9058Y45172D02*
X7966D01*
Y38829D01*
X22063D01*
X23117Y37774D01*
X23679Y37399D01*
X24343Y37267D01*
X30500D01*
X31163Y37399D01*
X31726Y37774D01*
X34437Y40486D01*
X34911Y40252D01*
X34878Y40000D01*
X34967Y39321D01*
X35229Y38689D01*
X35646Y38146D01*
X36189Y37729D01*
X36821Y37467D01*
X37121Y37427D01*
X38397Y36151D01*
X38378Y36000D01*
X38467Y35321D01*
X38729Y34689D01*
X39078Y34233D01*
X38988Y33917D01*
X38862Y33733D01*
X24447D01*
X24354Y33854D01*
X23811Y34271D01*
X23179Y34533D01*
X22500Y34622D01*
X21821Y34533D01*
X21189Y34271D01*
X20646Y33854D01*
X20229Y33311D01*
X19967Y32679D01*
X19878Y32000D01*
X19967Y31321D01*
X20229Y30689D01*
X20646Y30146D01*
Y30111D01*
X20218Y29782D01*
X19705Y29114D01*
X19382Y28335D01*
X19338Y28000D01*
X25662D01*
X25618Y28335D01*
X25295Y29114D01*
X24794Y29767D01*
X24805Y29840D01*
X24972Y30267D01*
X37843D01*
X37994Y29767D01*
X37658Y29542D01*
X33098Y24981D01*
X32656Y24320D01*
X32587Y23975D01*
X31466D01*
Y23039D01*
X30845D01*
X30583Y23301D01*
X30533Y23679D01*
X30271Y24311D01*
X29854Y24854D01*
X29311Y25271D01*
X28679Y25533D01*
X28000Y25622D01*
X27321Y25533D01*
X26689Y25271D01*
X26146Y24854D01*
X26131Y24835D01*
X25044D01*
X24872Y25335D01*
X25295Y25886D01*
X25618Y26665D01*
X25662Y27000D01*
X19338D01*
X19382Y26665D01*
X19705Y25886D01*
X20128Y25335D01*
X19956Y24835D01*
X17760D01*
X16011Y26585D01*
X16131Y27500D01*
X16007Y28440D01*
X15645Y29316D01*
X15067Y30068D01*
X14315Y30645D01*
X13440Y31007D01*
X12500Y31131D01*
X11560Y31007D01*
X10759Y30676D01*
X10514Y30737D01*
X10204Y30906D01*
X10148Y31183D01*
X9762Y31762D01*
X5784Y35739D01*
Y45000D01*
X5784Y45000D01*
X5649Y45683D01*
X5262Y46262D01*
X5262Y46262D01*
X4057Y47466D01*
X4264Y47966D01*
X9058D01*
Y45172D01*
D02*
G37*
G36*
X125632Y68048D02*
X126362Y67098D01*
X127312Y66368D01*
X128419Y65910D01*
X129606Y65754D01*
X130394D01*
X131581Y65910D01*
X132688Y66368D01*
X133639Y67098D01*
X134368Y68048D01*
X134600Y68609D01*
X135100Y68509D01*
Y63600D01*
X135100D01*
Y63400D01*
X135100D01*
Y56600D01*
X136308D01*
Y55908D01*
X131000Y50600D01*
X130500Y50600D01*
X122550Y58550D01*
X121839Y59025D01*
X121000Y59192D01*
X104797D01*
X104605Y59654D01*
X107726Y62774D01*
X108101Y63337D01*
X108233Y64000D01*
Y67158D01*
X109500D01*
X110339Y67325D01*
X110750Y67599D01*
X111250Y67350D01*
Y67350D01*
X111250Y67350D01*
X117350D01*
X117850Y67350D01*
X118050Y67350D01*
X124150D01*
Y68665D01*
X125377D01*
X125632Y68048D01*
D02*
G37*
G36*
X141173Y132199D02*
Y90000D01*
X139000D01*
Y87000D01*
Y84000D01*
X141173D01*
Y83400D01*
X135100D01*
Y82018D01*
X134600Y81919D01*
X134368Y82480D01*
X133639Y83430D01*
X132688Y84159D01*
X131581Y84618D01*
X130394Y84774D01*
X129606D01*
X128419Y84618D01*
X127312Y84159D01*
X126362Y83430D01*
X125632Y82480D01*
X125408Y81937D01*
X124150D01*
Y83150D01*
X118050D01*
X117550Y83150D01*
X117350Y83150D01*
X111692D01*
Y83850D01*
X111525Y84689D01*
X111050Y85400D01*
X110339Y85875D01*
X109500Y86042D01*
X107500D01*
X107233Y86261D01*
Y86782D01*
X108009Y87558D01*
X109500D01*
X110339Y87725D01*
X110750Y87999D01*
X111250Y87732D01*
Y86850D01*
X117350D01*
X117850Y86850D01*
X118050Y86850D01*
X124150D01*
Y88063D01*
X125496D01*
X125632Y87733D01*
X126362Y86783D01*
X127312Y86054D01*
X128419Y85595D01*
X129606Y85439D01*
X130394D01*
X131581Y85595D01*
X132688Y86054D01*
X133639Y86783D01*
X134368Y87733D01*
X134826Y88840D01*
X134983Y90028D01*
X134826Y91215D01*
X134368Y92322D01*
X133639Y93272D01*
X132688Y94002D01*
X131581Y94460D01*
X130394Y94616D01*
X129606D01*
X128419Y94460D01*
X127312Y94002D01*
X126362Y93272D01*
X125632Y92322D01*
X125473Y91937D01*
X124150D01*
Y93150D01*
X117850D01*
Y93150D01*
X117550D01*
X117550D01*
Y93150D01*
X115512D01*
X115463Y93650D01*
X115839Y93725D01*
X116550Y94200D01*
X117025Y94911D01*
X117192Y95750D01*
Y97250D01*
X117025Y98089D01*
X116550Y98800D01*
X115839Y99275D01*
X115778Y99287D01*
X115696Y99702D01*
X115298Y100298D01*
X114692Y100904D01*
X114883Y101366D01*
X115000D01*
X115683Y101502D01*
X116262Y101888D01*
X116648Y102467D01*
X116784Y103150D01*
Y103400D01*
X114000D01*
Y103900D01*
X113500D01*
Y106434D01*
X113000D01*
X112317Y106298D01*
X112150Y106187D01*
X111650Y106454D01*
Y106750D01*
X105350D01*
Y100650D01*
X105350Y100450D01*
X105350D01*
Y100150D01*
X105350Y100150D01*
Y96301D01*
X102274Y93226D01*
X101899Y92663D01*
X101767Y92000D01*
Y89961D01*
X101500Y89742D01*
X99500D01*
X98661Y89575D01*
X97950Y89100D01*
X97475Y88389D01*
X97308Y87550D01*
Y87300D01*
Y86050D01*
X97475Y85211D01*
X97950Y84500D01*
X98308Y84261D01*
Y76339D01*
X97950Y76100D01*
X97475Y75389D01*
X97308Y74550D01*
Y73050D01*
X97475Y72211D01*
X97808Y71712D01*
Y70914D01*
X97729Y70811D01*
X97467Y70179D01*
X97378Y69500D01*
X97467Y68821D01*
X97729Y68189D01*
X98146Y67646D01*
X98689Y67229D01*
X99321Y66967D01*
X100000Y66878D01*
X100022Y66881D01*
X100256Y66407D01*
X75314Y41465D01*
X74854Y41354D01*
X74311Y41771D01*
X73679Y42033D01*
X73000Y42122D01*
X72321Y42033D01*
X71689Y41771D01*
X71146Y41354D01*
X70729Y40811D01*
X70467Y40179D01*
X70383Y39541D01*
X70321Y39533D01*
X69689Y39271D01*
X69146Y38854D01*
X68729Y38311D01*
X68467Y37679D01*
X68459Y37617D01*
X67821Y37533D01*
X67189Y37271D01*
X66646Y36854D01*
X66229Y36311D01*
X65967Y35679D01*
X65878Y35000D01*
X65881Y34972D01*
X65528Y34619D01*
X65500Y34622D01*
X64821Y34533D01*
X64189Y34271D01*
X63646Y33854D01*
X63229Y33311D01*
X62967Y32679D01*
X62938Y32463D01*
X62809Y32016D01*
X60932Y30139D01*
X41175D01*
X41023Y30639D01*
X41226Y30774D01*
X45226Y34774D01*
X45601Y35337D01*
X45733Y36000D01*
Y37553D01*
X45854Y37646D01*
X46271Y38189D01*
X46479Y38691D01*
X46600Y38667D01*
X52900D01*
X53563Y38799D01*
X54126Y39174D01*
X56849Y41897D01*
X57000Y41878D01*
X57679Y41967D01*
X58192Y42179D01*
X58729Y42189D01*
X59146Y41646D01*
X59689Y41229D01*
X60321Y40967D01*
X60730Y40913D01*
X61046Y40446D01*
X61053Y40385D01*
X60967Y40179D01*
X60878Y39500D01*
X60967Y38821D01*
X61229Y38189D01*
X61646Y37646D01*
X62189Y37229D01*
X62821Y36967D01*
X63500Y36878D01*
X64179Y36967D01*
X64811Y37229D01*
X65354Y37646D01*
X65771Y38189D01*
X66033Y38821D01*
X66041Y38883D01*
X66679Y38967D01*
X67311Y39229D01*
X67854Y39646D01*
X68271Y40189D01*
X68533Y40821D01*
X68622Y41500D01*
X68533Y42179D01*
X68271Y42811D01*
X67854Y43354D01*
X67852Y43356D01*
Y45277D01*
X70963D01*
Y47700D01*
X73759D01*
X74321Y47467D01*
X75000Y47378D01*
X75679Y47467D01*
X76311Y47729D01*
X76854Y48146D01*
X77271Y48689D01*
X77533Y49321D01*
X77622Y50000D01*
X77533Y50679D01*
X77271Y51311D01*
X76854Y51854D01*
X76311Y52271D01*
X75679Y52533D01*
X75000Y52622D01*
X74321Y52533D01*
X73689Y52271D01*
X73146Y51854D01*
X72729Y51311D01*
X72669Y51166D01*
X70963D01*
Y53589D01*
X66391D01*
Y53589D01*
X66118Y53634D01*
X65899Y53590D01*
X65226Y53456D01*
X64839Y53197D01*
X64451Y53456D01*
X63559Y53634D01*
X62667Y53456D01*
X62279Y53197D01*
X61892Y53456D01*
X61000Y53634D01*
X60108Y53456D01*
X59360Y52957D01*
X59177Y53080D01*
X58941Y53127D01*
Y52337D01*
X58847Y52195D01*
X58669Y51303D01*
Y49433D01*
X58213D01*
Y51303D01*
X58035Y52195D01*
X57941Y52336D01*
Y53127D01*
X57705Y53080D01*
X57521Y52957D01*
X56774Y53456D01*
X55882Y53634D01*
X54990Y53456D01*
X54602Y53197D01*
X54215Y53456D01*
X53323Y53634D01*
X52431Y53456D01*
X51675Y52951D01*
X51170Y52195D01*
X50992Y51303D01*
Y47563D01*
X51115Y46948D01*
X50796Y46450D01*
X50748Y46423D01*
X50542Y46409D01*
X47973Y48978D01*
Y60767D01*
X48266Y60962D01*
X48706Y61621D01*
X48860Y62398D01*
Y67516D01*
X48706Y68292D01*
X48266Y68951D01*
X47607Y69391D01*
X46831Y69545D01*
X45650D01*
X45467Y69509D01*
X45081Y69826D01*
Y70417D01*
X45207Y70442D01*
X45769Y70818D01*
X50958Y76007D01*
X51346Y75688D01*
X51170Y75424D01*
X50992Y74532D01*
Y70792D01*
X51170Y69900D01*
X51675Y69143D01*
X52431Y68638D01*
X53323Y68461D01*
X54215Y68638D01*
X54602Y68897D01*
X54990Y68638D01*
X55882Y68461D01*
X56774Y68638D01*
X57161Y68897D01*
X57549Y68638D01*
X58441Y68461D01*
X59333Y68638D01*
X59720Y68897D01*
X60108Y68638D01*
X61000Y68461D01*
X61892Y68638D01*
X62279Y68897D01*
X62667Y68638D01*
X63559Y68461D01*
X64451Y68638D01*
X65199Y69138D01*
X65382Y69015D01*
X65618Y68968D01*
Y69759D01*
X65712Y69900D01*
X65890Y70792D01*
Y72662D01*
Y74532D01*
X65712Y75424D01*
X65618Y75565D01*
Y76355D01*
X65382Y76308D01*
X65088Y76713D01*
X64785Y77167D01*
X64488Y77463D01*
X64679Y77925D01*
X64961D01*
Y80500D01*
Y83075D01*
X63613D01*
Y83475D01*
X60374D01*
X60107Y83975D01*
X60165Y84063D01*
X68254D01*
X68689Y83729D01*
X69321Y83467D01*
X70000Y83378D01*
X70679Y83467D01*
X71311Y83729D01*
X71854Y84146D01*
X72271Y84689D01*
X72533Y85321D01*
X72622Y86000D01*
X72533Y86679D01*
X72276Y87300D01*
X72271Y87311D01*
X71854Y87854D01*
X71311Y88271D01*
X70679Y88533D01*
X70000Y88622D01*
X69321Y88533D01*
X68689Y88271D01*
X68254Y87937D01*
X59000D01*
X58259Y87790D01*
X57630Y87370D01*
X57560Y87300D01*
X56176Y85916D01*
X55771Y86189D01*
X56033Y86821D01*
X56122Y87500D01*
X56116Y87550D01*
X56033Y88179D01*
X55771Y88811D01*
X55513Y89147D01*
X55760Y89647D01*
X61853D01*
Y96767D01*
X64075D01*
X64297Y96318D01*
X64047Y95993D01*
X63649Y95032D01*
X63579Y94500D01*
X71421D01*
X71351Y95032D01*
X70953Y95993D01*
X70319Y96819D01*
X69493Y97453D01*
X68532Y97851D01*
X68070Y97912D01*
X67891Y98440D01*
X68718Y99267D01*
X76000D01*
X76663Y99399D01*
X77226Y99774D01*
X78983Y101532D01*
X79721Y101226D01*
X81000Y101058D01*
X82279Y101226D01*
X83471Y101720D01*
X84495Y102505D01*
X85280Y103529D01*
X85774Y104721D01*
X85942Y106000D01*
X85774Y107279D01*
X85280Y108471D01*
X84495Y109495D01*
X83471Y110280D01*
X82279Y110774D01*
X81000Y110942D01*
X79721Y110774D01*
X78529Y110280D01*
X77505Y109495D01*
X76720Y108471D01*
X76260Y107361D01*
X76000Y107317D01*
X75740Y107361D01*
X75280Y108471D01*
X74495Y109495D01*
X73471Y110280D01*
X72279Y110774D01*
X71000Y110942D01*
X69721Y110774D01*
X68529Y110280D01*
X67505Y109495D01*
X66720Y108471D01*
X66260Y107361D01*
X66000Y107317D01*
X65740Y107361D01*
X65280Y108471D01*
X64495Y109495D01*
X64298Y109646D01*
X64034Y110025D01*
X64034D01*
X64034Y110025D01*
Y115975D01*
X57888D01*
Y115575D01*
X56539D01*
Y113000D01*
X56040D01*
Y112500D01*
X53366D01*
Y110500D01*
X51500D01*
Y106000D01*
Y101500D01*
X51737D01*
X51889Y101000D01*
X51777Y100926D01*
X50274Y99423D01*
X49899Y98860D01*
X49767Y98197D01*
Y93718D01*
X48782Y92733D01*
X42833D01*
X42170Y92601D01*
X41607Y92226D01*
X39474Y90092D01*
X39099Y89530D01*
X38967Y88867D01*
Y85121D01*
X38729Y84811D01*
X38467Y84179D01*
X38378Y83500D01*
X38467Y82821D01*
X38729Y82189D01*
X39146Y81646D01*
X39689Y81229D01*
X40321Y80967D01*
X41000Y80878D01*
X41679Y80967D01*
X42311Y81229D01*
X42584Y80824D01*
X37390Y75630D01*
X36970Y75001D01*
X36823Y74260D01*
Y69506D01*
X36179D01*
Y67094D01*
X35618Y66982D01*
X34907Y66507D01*
X33489Y65089D01*
X33014Y64378D01*
X32847Y63539D01*
Y60975D01*
X31966D01*
Y60600D01*
Y57378D01*
X30321Y55733D01*
X29400D01*
Y60600D01*
Y60900D01*
X22600D01*
Y60900D01*
X22600D01*
X22100Y60794D01*
X21837Y60997D01*
Y61000D01*
Y66100D01*
X21690Y66841D01*
X21270Y67470D01*
X20373Y68366D01*
X20565Y68828D01*
X23349D01*
Y75172D01*
X17399D01*
Y70494D01*
X16937Y70302D01*
X15518Y71722D01*
Y72984D01*
X15348Y73838D01*
X14864Y74561D01*
X14141Y75045D01*
X13287Y75214D01*
X11712D01*
X10859Y75045D01*
X10136Y74561D01*
X9652Y73838D01*
X9482Y72984D01*
Y71016D01*
X9652Y70162D01*
X10136Y69439D01*
X10859Y68955D01*
X11712Y68785D01*
X12975D01*
X14788Y66972D01*
X14597Y66510D01*
X13462D01*
Y60958D01*
X13250Y60784D01*
X13000D01*
Y58000D01*
Y55184D01*
X13383Y54815D01*
X13409Y54738D01*
X13378Y54500D01*
X13467Y53821D01*
X13729Y53189D01*
X13812Y53080D01*
X13900Y52550D01*
X13624Y52137D01*
X9475D01*
Y54113D01*
X9075D01*
Y55461D01*
X6500D01*
Y55961D01*
X6000D01*
Y58634D01*
X3925D01*
X3784Y59075D01*
Y59092D01*
X3854Y59146D01*
X4271Y59689D01*
X4533Y60321D01*
X4622Y61000D01*
X4533Y61679D01*
X4271Y62311D01*
X3854Y62854D01*
X3311Y63271D01*
X2679Y63533D01*
X2000Y63622D01*
X1321Y63533D01*
X689Y63271D01*
X146Y62854D01*
X-271Y62311D01*
X-533Y61679D01*
X-622Y61000D01*
X-580Y60676D01*
X-1067Y60546D01*
X-1206Y60881D01*
X-1281Y60979D01*
D01*
X-1666Y61480D01*
X-2265Y61940D01*
X-2963Y62229D01*
X-3213Y62262D01*
Y59343D01*
X-818D01*
Y59433D01*
X-870Y59827D01*
X-383Y59958D01*
X-271Y59689D01*
X146Y59146D01*
X216Y59092D01*
Y47000D01*
X351Y46317D01*
X738Y45738D01*
X2216Y44261D01*
Y35000D01*
X2351Y34317D01*
X2738Y33738D01*
X6716Y29761D01*
Y25000D01*
X6852Y24317D01*
X7238Y23738D01*
X10128Y20848D01*
X10184Y20261D01*
X9933Y20067D01*
X9355Y19316D01*
X9321Y19233D01*
X6208D01*
X5878Y19609D01*
X5929Y20000D01*
X5812Y20888D01*
X5664Y21246D01*
X5900Y21600D01*
X5900D01*
Y28400D01*
X3943D01*
X3726Y28726D01*
X2226Y30226D01*
X1663Y30601D01*
X1000Y30733D01*
X-19000D01*
X-19663Y30601D01*
X-19807Y30505D01*
X-20307Y30773D01*
Y60600D01*
Y72733D01*
X-19807Y72903D01*
X-19195Y72105D01*
X-18171Y71320D01*
X-16979Y70826D01*
X-15700Y70658D01*
X-14421Y70826D01*
X-13229Y71320D01*
X-12205Y72105D01*
X-11420Y73129D01*
X-10926Y74321D01*
X-10758Y75600D01*
X-10926Y76879D01*
X-11420Y78071D01*
X-12205Y79095D01*
X-13229Y79880D01*
X-14339Y80340D01*
X-14366Y80500D01*
X-14383Y80600D01*
X-14339Y80860D01*
X-13229Y81320D01*
X-12205Y82105D01*
X-11420Y83129D01*
X-10926Y84321D01*
X-10758Y85600D01*
X-10926Y86879D01*
X-11420Y88071D01*
X-12205Y89095D01*
X-13229Y89880D01*
X-14339Y90340D01*
X-14383Y90600D01*
X-14339Y90860D01*
X-13229Y91320D01*
X-12205Y92106D01*
X-11420Y93129D01*
X-10926Y94321D01*
X-10758Y95600D01*
X-10926Y96879D01*
X-11420Y98071D01*
X-12205Y99095D01*
X-13229Y99880D01*
X-14001Y100200D01*
X-13901Y100700D01*
X-10800D01*
Y110500D01*
X-20307D01*
Y132654D01*
X-11787Y141173D01*
X78720D01*
X78890Y140673D01*
X78005Y139995D01*
X77220Y138971D01*
X76726Y137779D01*
X76558Y136500D01*
X76726Y135221D01*
X77220Y134029D01*
X78005Y133005D01*
X78589Y132557D01*
X78654Y132062D01*
X78526Y131895D01*
X78067Y130788D01*
X77911Y129600D01*
Y128400D01*
X78067Y127212D01*
X78526Y126105D01*
X79255Y125155D01*
X80206Y124425D01*
X81312Y123967D01*
X82500Y123811D01*
X83688Y123967D01*
X84794Y124425D01*
X85745Y125155D01*
X86474Y126105D01*
X86932Y127212D01*
X87089Y128400D01*
Y129600D01*
X86932Y130788D01*
X86474Y131895D01*
X85745Y132845D01*
X85195Y133267D01*
X85780Y134029D01*
X86274Y135221D01*
X86442Y136500D01*
X86274Y137779D01*
X85780Y138971D01*
X84995Y139995D01*
X84110Y140673D01*
X84280Y141173D01*
X89500D01*
Y137000D01*
X97500D01*
Y141173D01*
X132199D01*
X141173Y132199D01*
D02*
G37*
G36*
X-14346Y5495D02*
X-14501Y5263D01*
X-14633Y4600D01*
Y-4405D01*
X-14501Y-5068D01*
X-14126Y-5630D01*
X-13389Y-6367D01*
X-13581Y-6828D01*
X-16424D01*
Y4124D01*
X-14735Y5814D01*
X-14346Y5495D01*
D02*
G37*
G36*
X52461Y12888D02*
X49917Y10344D01*
X49484Y10776D01*
X47594Y8886D01*
X46886Y9593D01*
X48777Y11484D01*
X47309Y12951D01*
X45984Y14277D01*
X44093Y12386D01*
X43740Y12740D01*
X43386Y12386D01*
X41566Y14207D01*
X40613Y13254D01*
X40330Y13537D01*
X36233Y9440D01*
X35733Y9647D01*
Y11500D01*
X35601Y12163D01*
X35226Y12726D01*
X31602Y16349D01*
X31622Y16500D01*
X31533Y17179D01*
X31374Y17563D01*
X31710Y18025D01*
X37613D01*
Y18425D01*
X38961D01*
Y21000D01*
Y23575D01*
X38166D01*
X37959Y24075D01*
X39945Y26061D01*
X52461D01*
Y12888D01*
D02*
G37*
G36*
X-8733Y-11022D02*
Y-14584D01*
X-9402Y-15098D01*
X-9942Y-15801D01*
X-10282Y-16621D01*
X-10398Y-17500D01*
X-10282Y-18379D01*
X-9942Y-19199D01*
X-9476Y-19807D01*
X-9626Y-20307D01*
X-12242D01*
X-18915Y-13634D01*
X-18723Y-13172D01*
X-15980D01*
X-15579Y-13672D01*
X-15622Y-14000D01*
X-15533Y-14679D01*
X-15271Y-15311D01*
X-14854Y-15854D01*
X-14311Y-16271D01*
X-13679Y-16533D01*
X-13000Y-16622D01*
X-12321Y-16533D01*
X-11689Y-16271D01*
X-11146Y-15854D01*
X-10729Y-15311D01*
X-10467Y-14679D01*
X-10378Y-14000D01*
X-10421Y-13672D01*
X-10020Y-13172D01*
X-9966D01*
Y-10443D01*
X-9504Y-10251D01*
X-8733Y-11022D01*
D02*
G37*
%LPC*%
G36*
X-818Y38657D02*
X-3213D01*
Y35738D01*
X-2963Y35771D01*
X-2265Y36060D01*
X-1666Y36520D01*
X-1206Y37119D01*
X-916Y37818D01*
X-818Y38567D01*
Y38657D01*
D02*
G37*
G36*
X-4213D02*
X-6607D01*
Y38567D01*
X-6509Y37818D01*
X-6220Y37119D01*
X-5760Y36520D01*
X-5160Y36060D01*
X-4462Y35771D01*
X-4213Y35738D01*
Y38657D01*
D02*
G37*
G36*
X-15236Y38016D02*
X-16016D01*
X-16739Y37921D01*
X-17413Y37641D01*
X-17992Y37197D01*
X-18437Y36618D01*
X-18716Y35944D01*
X-18745Y35720D01*
X-15236D01*
Y38016D01*
D02*
G37*
G36*
X-13457D02*
X-14236D01*
Y35720D01*
X-10727D01*
X-10756Y35944D01*
X-11036Y36618D01*
X-11480Y37197D01*
X-12059Y37641D01*
X-12733Y37921D01*
X-13457Y38016D01*
D02*
G37*
G36*
X114900Y37522D02*
X114221Y37433D01*
X113589Y37171D01*
X113046Y36754D01*
X112954Y36635D01*
X111769D01*
X111754Y36654D01*
X111211Y37071D01*
X110579Y37333D01*
X109900Y37422D01*
X109221Y37333D01*
X108589Y37071D01*
X108046Y36654D01*
X107629Y36111D01*
X107367Y35479D01*
X107278Y34800D01*
X107367Y34121D01*
X107629Y33489D01*
X108046Y32946D01*
X108589Y32529D01*
X109221Y32267D01*
X109900Y32178D01*
X110579Y32267D01*
X111211Y32529D01*
X111754Y32946D01*
X111769Y32965D01*
X113151D01*
X113589Y32629D01*
X114221Y32367D01*
X114900Y32278D01*
X115579Y32367D01*
X116211Y32629D01*
X116754Y33046D01*
X117171Y33589D01*
X117433Y34221D01*
X117522Y34900D01*
X117433Y35579D01*
X117171Y36211D01*
X116754Y36754D01*
X116211Y37171D01*
X115579Y37433D01*
X114900Y37522D01*
D02*
G37*
G36*
X25500Y50000D02*
X23000D01*
Y47500D01*
X25500D01*
Y50000D01*
D02*
G37*
G36*
X29000D02*
X26500D01*
Y47500D01*
X29000D01*
Y50000D01*
D02*
G37*
G36*
X12000Y57500D02*
X9966D01*
Y57000D01*
X10102Y56317D01*
X10488Y55738D01*
X11067Y55352D01*
X11750Y55216D01*
X12000D01*
Y57500D01*
D02*
G37*
G36*
X-4213Y42577D02*
X-4462Y42544D01*
X-5160Y42255D01*
X-5760Y41795D01*
X-6220Y41195D01*
X-6509Y40497D01*
X-6607Y39748D01*
Y39657D01*
X-4213D01*
Y42577D01*
D02*
G37*
G36*
X-3213D02*
Y39657D01*
X-818D01*
Y39748D01*
X-916Y40497D01*
X-1206Y41195D01*
X-1666Y41795D01*
X-2265Y42255D01*
X-2963Y42544D01*
X-3213Y42577D01*
D02*
G37*
G36*
X29134Y44772D02*
X27157D01*
Y42500D01*
X29134D01*
Y44772D01*
D02*
G37*
G36*
X82750Y1000D02*
X80500D01*
Y-1250D01*
X82750D01*
Y1000D01*
D02*
G37*
G36*
X59260Y23553D02*
X57723Y22016D01*
X59190Y20549D01*
X60727Y22086D01*
X59260Y23553D01*
D02*
G37*
G36*
X42134Y23575D02*
X39961D01*
Y21500D01*
X42134D01*
Y23575D01*
D02*
G37*
G36*
X43810Y16451D02*
X42273Y14914D01*
X43740Y13447D01*
X45277Y14984D01*
X43810Y16451D01*
D02*
G37*
G36*
X60190Y17451D02*
X58723Y15984D01*
X60260Y14447D01*
X61727Y15914D01*
X60190Y17451D01*
D02*
G37*
G36*
X42134Y20500D02*
X39961D01*
Y18425D01*
X42134D01*
Y20500D01*
D02*
G37*
G36*
X-15236Y34720D02*
X-18745D01*
X-18716Y34497D01*
X-18437Y33823D01*
X-17992Y33244D01*
X-17413Y32799D01*
X-16739Y32520D01*
X-16016Y32425D01*
X-15236D01*
Y34720D01*
D02*
G37*
G36*
X-10727D02*
X-14236D01*
Y32425D01*
X-13457D01*
X-12733Y32520D01*
X-12059Y32799D01*
X-11480Y33244D01*
X-11036Y33823D01*
X-10756Y34497D01*
X-10727Y34720D01*
D02*
G37*
G36*
X42611Y-5363D02*
X41828Y-5466D01*
X41098Y-5768D01*
X40472Y-6249D01*
X39991Y-6876D01*
X39689Y-7605D01*
X39586Y-8389D01*
X39689Y-9172D01*
X39991Y-9902D01*
X40472Y-10528D01*
X41098Y-11009D01*
X41828Y-11311D01*
X42611Y-11415D01*
X43395Y-11311D01*
X44124Y-11009D01*
X44751Y-10528D01*
X45232Y-9902D01*
X45534Y-9172D01*
X45637Y-8389D01*
X45534Y-7605D01*
X45232Y-6876D01*
X44751Y-6249D01*
X44124Y-5768D01*
X43395Y-5466D01*
X42611Y-5363D01*
D02*
G37*
G36*
X129500Y24039D02*
X127425D01*
Y21866D01*
X129500D01*
Y24039D01*
D02*
G37*
G36*
X132575D02*
X130500D01*
Y21866D01*
X132575D01*
Y24039D01*
D02*
G37*
G36*
X79500Y1000D02*
X77250D01*
Y-1250D01*
X79500D01*
Y1000D01*
D02*
G37*
G36*
X-4213Y58343D02*
X-6607D01*
Y58252D01*
X-6509Y57503D01*
X-6220Y56805D01*
X-5760Y56205D01*
X-5160Y55745D01*
X-4462Y55456D01*
X-4213Y55423D01*
Y58343D01*
D02*
G37*
G36*
X87500Y98390D02*
X86364Y98241D01*
X85305Y97802D01*
X84396Y97104D01*
X83698Y96195D01*
X83259Y95136D01*
X83110Y94000D01*
X83259Y92864D01*
X83698Y91805D01*
X84396Y90896D01*
X84716Y90650D01*
X84546Y90150D01*
X84050Y90150D01*
X84050D01*
Y90150D01*
X80849D01*
X80669Y90342D01*
X80604Y90896D01*
X81302Y91805D01*
X81741Y92864D01*
X81890Y94000D01*
X81741Y95136D01*
X81302Y96195D01*
X80604Y97104D01*
X79695Y97802D01*
X78636Y98241D01*
X77500Y98390D01*
X76364Y98241D01*
X75305Y97802D01*
X74396Y97104D01*
X73698Y96195D01*
X73259Y95136D01*
X73110Y94000D01*
X73259Y92864D01*
X73698Y91805D01*
X74396Y90896D01*
X75305Y90198D01*
X75630Y90063D01*
D01*
D01*
X75694Y89742D01*
X75710Y89659D01*
X76130Y89030D01*
X77750Y87410D01*
Y83850D01*
X78963D01*
Y82600D01*
X79110Y81859D01*
X79530Y81230D01*
X83395Y77365D01*
X83467Y76821D01*
X83729Y76189D01*
X84146Y75646D01*
X84689Y75229D01*
X85321Y74967D01*
X86000Y74878D01*
X86679Y74967D01*
X87311Y75229D01*
X87854Y75646D01*
X88271Y76189D01*
X88533Y76821D01*
X88622Y77500D01*
X88533Y78179D01*
X88271Y78811D01*
X87854Y79354D01*
X87311Y79771D01*
X86679Y80033D01*
X86135Y80105D01*
X82890Y83350D01*
X82964Y83850D01*
X84350Y83850D01*
X84550Y83850D01*
X90650D01*
Y87300D01*
Y90150D01*
X90454D01*
X90284Y90650D01*
X90604Y90896D01*
X91302Y91805D01*
X91741Y92864D01*
X91890Y94000D01*
X91741Y95136D01*
X91302Y96195D01*
X90604Y97104D01*
X89695Y97802D01*
X88636Y98241D01*
X87500Y98390D01*
D02*
G37*
G36*
X71421Y93500D02*
X68000D01*
Y90079D01*
X68532Y90149D01*
X69493Y90547D01*
X70319Y91181D01*
X70953Y92007D01*
X71351Y92968D01*
X71421Y93500D01*
D02*
G37*
G36*
X50500Y105500D02*
X46500D01*
Y101500D01*
X50500D01*
Y105500D01*
D02*
G37*
G36*
X122047Y134764D02*
X120058Y134607D01*
X118118Y134142D01*
X116274Y133378D01*
X114573Y132335D01*
X113056Y131039D01*
X111760Y129522D01*
X110717Y127821D01*
X109953Y125977D01*
X109487Y124037D01*
X109331Y122047D01*
X109487Y120058D01*
X109953Y118118D01*
X110717Y116274D01*
X111760Y114573D01*
X113056Y113056D01*
X114573Y111760D01*
X116274Y110717D01*
X118118Y109953D01*
X120058Y109487D01*
X120850Y109425D01*
Y103850D01*
X122267D01*
Y103142D01*
X121000D01*
X120161Y102975D01*
X119450Y102500D01*
X118975Y101789D01*
X118808Y100950D01*
Y99450D01*
X118975Y98611D01*
X119450Y97900D01*
X120161Y97425D01*
X121000Y97258D01*
X123000D01*
X123839Y97425D01*
X124550Y97900D01*
X124801Y98276D01*
X125365Y98220D01*
X125632Y97576D01*
X126362Y96625D01*
X127312Y95896D01*
X128419Y95438D01*
X129606Y95281D01*
X130394D01*
X131581Y95438D01*
X132688Y95896D01*
X133639Y96625D01*
X134368Y97576D01*
X134826Y98682D01*
X134983Y99870D01*
X134826Y101058D01*
X134368Y102164D01*
X133639Y103115D01*
X133332Y103350D01*
X133502Y103850D01*
X133750D01*
Y110150D01*
X127758D01*
X127659Y110650D01*
X127821Y110717D01*
X129522Y111760D01*
X131039Y113056D01*
X132335Y114573D01*
X133378Y116274D01*
X134142Y118118D01*
X134607Y120058D01*
X134764Y122047D01*
X134607Y124037D01*
X134142Y125977D01*
X133378Y127821D01*
X132335Y129522D01*
X131039Y131039D01*
X129522Y132335D01*
X127821Y133378D01*
X125977Y134142D01*
X124037Y134607D01*
X122047Y134764D01*
D02*
G37*
G36*
X138000Y86500D02*
X135500D01*
Y84000D01*
X138000D01*
Y86500D01*
D02*
G37*
G36*
X18800Y124938D02*
X17651Y124787D01*
X16581Y124343D01*
X15662Y123638D01*
X14957Y122719D01*
X14513Y121649D01*
X14362Y120500D01*
Y91615D01*
X14151Y91587D01*
X13081Y91143D01*
X12162Y90438D01*
X11457Y89519D01*
X11013Y88449D01*
X10862Y87300D01*
X11013Y86151D01*
X11457Y85081D01*
X12162Y84162D01*
X13081Y83457D01*
X14151Y83013D01*
X15300Y82862D01*
X20300D01*
X21449Y83013D01*
X22519Y83457D01*
X23438Y84162D01*
X24143Y85081D01*
X24587Y86151D01*
X24738Y87300D01*
X24587Y88449D01*
X24143Y89519D01*
X23438Y90438D01*
X23238Y90592D01*
Y120500D01*
X23087Y121649D01*
X22643Y122719D01*
X21938Y123638D01*
X21019Y124343D01*
X19949Y124787D01*
X18800Y124938D01*
D02*
G37*
G36*
X67000Y93500D02*
X63579D01*
X63649Y92968D01*
X64047Y92007D01*
X64681Y91181D01*
X65507Y90547D01*
X66468Y90149D01*
X67000Y90079D01*
Y93500D01*
D02*
G37*
G36*
X138000Y90000D02*
X135500D01*
Y87500D01*
X138000D01*
Y90000D01*
D02*
G37*
G36*
X96492Y128500D02*
X92843D01*
Y124250D01*
X96492D01*
Y128500D01*
D02*
G37*
G36*
X91843D02*
X88193D01*
Y124250D01*
X91843D01*
Y128500D01*
D02*
G37*
G36*
X97500Y136000D02*
X89500D01*
Y133750D01*
X88193D01*
Y129500D01*
X96492D01*
Y131750D01*
X97500D01*
Y136000D01*
D02*
G37*
G36*
X28000Y134429D02*
X27112Y134312D01*
X26285Y133970D01*
X25575Y133425D01*
X25030Y132715D01*
X24688Y131888D01*
X24571Y131000D01*
X24688Y130112D01*
X25030Y129285D01*
X25575Y128575D01*
X26285Y128030D01*
X27112Y127688D01*
X28000Y127571D01*
X28888Y127688D01*
X29715Y128030D01*
X30425Y128575D01*
X30970Y129285D01*
X31313Y130112D01*
X31429Y131000D01*
X31313Y131888D01*
X30970Y132715D01*
X30425Y133425D01*
X29715Y133970D01*
X28888Y134312D01*
X28000Y134429D01*
D02*
G37*
G36*
X50500Y110500D02*
X46500D01*
Y106500D01*
X50500D01*
Y110500D01*
D02*
G37*
G36*
X115000Y106434D02*
X114500D01*
Y104400D01*
X116784D01*
Y104650D01*
X116648Y105333D01*
X116262Y105912D01*
X115683Y106298D01*
X115000Y106434D01*
D02*
G37*
G36*
X55540Y115575D02*
X53366D01*
Y113500D01*
X55540D01*
Y115575D01*
D02*
G37*
G36*
X0Y134764D02*
X-1989Y134607D01*
X-3930Y134142D01*
X-5773Y133378D01*
X-7474Y132335D01*
X-8992Y131039D01*
X-10288Y129522D01*
X-11330Y127821D01*
X-12094Y125977D01*
X-12560Y124037D01*
X-12717Y122047D01*
X-12560Y120058D01*
X-12094Y118118D01*
X-11330Y116274D01*
X-10288Y114573D01*
X-8992Y113056D01*
X-7474Y111760D01*
X-5773Y110717D01*
X-3930Y109953D01*
X-1989Y109487D01*
X0Y109331D01*
X1989Y109487D01*
X3930Y109953D01*
X5773Y110717D01*
X7474Y111760D01*
X8992Y113056D01*
X10288Y114573D01*
X11330Y116274D01*
X12094Y118118D01*
X12560Y120058D01*
X12717Y122047D01*
X12560Y124037D01*
X12094Y125977D01*
X11330Y127821D01*
X10288Y129522D01*
X8992Y131039D01*
X7474Y132335D01*
X5773Y133378D01*
X3930Y134142D01*
X1989Y134607D01*
X0Y134764D01*
D02*
G37*
G36*
X12000Y60784D02*
X11750D01*
X11067Y60649D01*
X10995Y60600D01*
X10488Y60262D01*
X10102Y59683D01*
X9966Y59000D01*
Y58500D01*
X12000D01*
Y60784D01*
D02*
G37*
G36*
X7000Y58634D02*
Y56461D01*
X9075D01*
Y58634D01*
X7000D01*
D02*
G37*
G36*
X-15236Y62280D02*
X-18745D01*
X-18716Y62056D01*
X-18437Y61382D01*
X-17992Y60803D01*
X-17413Y60359D01*
X-16739Y60079D01*
X-16016Y59984D01*
X-15236D01*
Y62280D01*
D02*
G37*
G36*
X-4213Y62262D02*
X-4462Y62229D01*
X-5160Y61940D01*
X-5760Y61480D01*
X-6220Y60881D01*
X-6336Y60600D01*
X-6509Y60182D01*
X-6607Y59433D01*
Y59343D01*
X-4213D01*
Y62262D01*
D02*
G37*
G36*
X42634Y57500D02*
X40461D01*
Y55425D01*
X42634D01*
Y57500D01*
D02*
G37*
G36*
X-818Y58343D02*
X-3213D01*
Y55423D01*
X-2963Y55456D01*
X-2265Y55745D01*
X-1666Y56205D01*
X-1206Y56805D01*
X-916Y57503D01*
X-818Y58252D01*
Y58343D01*
D02*
G37*
G36*
X134543Y60000D02*
X130500D01*
Y56350D01*
X134543D01*
Y60000D01*
D02*
G37*
G36*
X129500D02*
X125457D01*
Y56350D01*
X129500D01*
Y60000D01*
D02*
G37*
G36*
X68677Y76862D02*
X67785Y76685D01*
X67038Y76185D01*
X66854Y76308D01*
X66618Y76355D01*
Y75565D01*
X66524Y75424D01*
X66346Y74532D01*
Y72662D01*
Y70792D01*
X66524Y69900D01*
X66618Y69758D01*
Y68968D01*
X66854Y69015D01*
X67038Y69138D01*
X67785Y68638D01*
X68677Y68461D01*
X69569Y68638D01*
X70325Y69143D01*
X70830Y69900D01*
X71008Y70792D01*
Y74532D01*
X70830Y75424D01*
X70325Y76180D01*
X69569Y76685D01*
X68677Y76862D01*
D02*
G37*
G36*
X-13457Y65575D02*
X-14236D01*
Y63280D01*
X-10727D01*
X-10756Y63503D01*
X-11036Y64177D01*
X-11480Y64756D01*
X-12059Y65201D01*
X-12733Y65480D01*
X-13457Y65575D01*
D02*
G37*
G36*
X68134Y83075D02*
X65961D01*
Y81000D01*
X68134D01*
Y83075D01*
D02*
G37*
G36*
Y80000D02*
X65961D01*
Y77925D01*
X68134D01*
Y80000D01*
D02*
G37*
G36*
X129500Y64650D02*
X125457D01*
Y61000D01*
X129500D01*
Y64650D01*
D02*
G37*
G36*
X-10727Y62280D02*
X-14236D01*
Y59984D01*
X-13457D01*
X-12733Y60079D01*
X-12059Y60359D01*
X-11480Y60803D01*
X-11252Y61100D01*
X-11036Y61382D01*
X-10756Y62056D01*
X-10727Y62280D01*
D02*
G37*
G36*
X-15236Y65575D02*
X-16016D01*
X-16739Y65480D01*
X-17413Y65201D01*
X-17992Y64756D01*
X-18437Y64177D01*
X-18716Y63503D01*
X-18745Y63280D01*
X-15236D01*
Y65575D01*
D02*
G37*
G36*
X134543Y64650D02*
X130500D01*
Y61000D01*
X134543D01*
Y64650D01*
D02*
G37*
%LPD*%
D10*
X10977Y122047D02*
G03*
X10977Y122047I-10977J0D01*
G01*
X133025D02*
G03*
X133025Y122047I-10977J0D01*
G01*
Y0D02*
G03*
X133025Y0I-10977J0D01*
G01*
X10977D02*
G03*
X10977Y0I-10977J0D01*
G01*
X-15219Y-15781D02*
Y-4990D01*
Y-15781D02*
X-10632Y-20369D01*
X132D01*
X3000Y-17500D01*
X-15500Y4000D02*
X-12843Y6657D01*
Y10000D01*
X-15500Y7500D02*
Y14470D01*
X-18158Y4843D02*
X-15500Y7500D01*
X-18158Y-10000D02*
Y4843D01*
X-12900Y-4405D02*
Y4600D01*
Y-4405D02*
X-7000Y-10305D01*
Y-17500D02*
Y-10305D01*
X87500Y87000D02*
Y94000D01*
X31039Y54000D02*
X35039Y58000D01*
X19500Y54000D02*
X31039D01*
X16437Y57063D02*
X19500Y54000D01*
X16437Y57063D02*
Y63339D01*
X-20500Y27500D02*
X-19000Y29000D01*
X-20500Y18899D02*
Y27500D01*
Y18899D02*
X-17701Y16100D01*
X2500Y25000D02*
Y27500D01*
X1000Y29000D02*
X2500Y27500D01*
X-19000Y29000D02*
X1000D01*
X-17701Y16100D02*
X-17130D01*
X-15500Y14470D01*
X22500Y32000D02*
X40000D01*
X44000Y36000D01*
X4500Y17500D02*
X13000Y9000D01*
X4500Y17500D02*
X4500D01*
X13000Y7000D02*
Y9000D01*
X-19000Y13000D02*
X-18000Y14000D01*
X44000Y36000D02*
Y39500D01*
X43500Y46500D02*
Y48500D01*
Y46500D02*
X47500Y42500D01*
X52900Y40400D02*
X57000Y44500D01*
X44500Y42500D02*
X46600Y40400D01*
X52900D01*
X34000Y42500D02*
X44500D01*
X46240Y48260D02*
X50256Y44244D01*
X46240Y48260D02*
Y64957D01*
X67500Y-2000D02*
X69000Y-3500D01*
X67500Y-2000D02*
Y3930D01*
X66900Y4530D02*
X67500Y3930D01*
X66900Y4530D02*
Y6870D01*
X74500Y14470D01*
Y14500D01*
X60000Y-6500D02*
Y2000D01*
X34000Y7000D02*
Y11500D01*
X29000Y16500D02*
X34000Y11500D01*
X21343Y42000D02*
X24343Y39000D01*
X30500D01*
X34000Y42500D01*
X6500Y51039D02*
X7340Y50200D01*
X60740Y7260D02*
X64500Y3500D01*
X60740Y7260D02*
X63740Y10260D01*
X77500Y4000D02*
X80000Y6500D01*
X75900Y4000D02*
X77500D01*
X73400Y1500D02*
X75900Y4000D01*
X37000Y6000D02*
X40260Y9260D01*
X37000Y6000D02*
X37000D01*
X42500Y72043D02*
X44543D01*
X53000Y80500D01*
X60539D01*
X130000Y99870D02*
X130600Y100470D01*
Y107000D01*
X124000Y102200D02*
Y107000D01*
X122000Y100200D02*
X124000Y102200D01*
X13000Y3500D02*
X15100Y5600D01*
X13000Y-5000D02*
Y3500D01*
X5000Y-13000D02*
X13000Y-5000D01*
X0Y-13000D02*
X5000D01*
X-2000Y-17500D02*
Y-15000D01*
X0Y-13000D01*
X15100Y5600D02*
Y10100D01*
X17500Y12500D01*
X-12900Y4600D02*
X-8000Y9500D01*
Y20000D01*
X69000Y3000D02*
Y6000D01*
Y3000D02*
X70500Y1500D01*
X73400D01*
X-19000Y10843D02*
Y13000D01*
Y10843D02*
X-18157Y10000D01*
X-13000Y-14000D02*
Y-10157D01*
X61000Y78500D02*
Y80039D01*
Y72662D02*
Y78500D01*
X63559Y75941D01*
Y72662D02*
Y75941D01*
X102500Y66200D02*
Y71628D01*
X74000Y33000D02*
X77000D01*
X71744Y31756D02*
X77756D01*
X80256Y34256D01*
Y37756D01*
X106500Y64000D01*
X77000Y33000D02*
X79000Y35000D01*
Y38500D01*
X105000Y64500D01*
Y70683D01*
X108500Y74183D01*
X103756Y65256D02*
Y71136D01*
X105500Y72881D02*
Y87500D01*
X103756Y71136D02*
X105500Y72881D01*
X102500Y71628D02*
X103500Y72628D01*
X105500Y87500D02*
X108500Y90500D01*
Y74183D02*
Y77500D01*
X103500Y72628D02*
Y92000D01*
X138500Y67000D02*
Y80000D01*
X106500Y64000D02*
Y68100D01*
X108500Y70100D01*
X103500Y92000D02*
X108500Y97000D01*
Y90500D02*
X113900D01*
X111000Y80000D02*
X114400D01*
X108500Y77500D02*
X111000Y80000D01*
X108500Y70100D02*
X114000D01*
X41900Y85600D02*
X43000Y84500D01*
X44500D01*
X40700Y83800D02*
X41000Y83500D01*
X40700Y83800D02*
Y88867D01*
X41900Y85600D02*
Y88370D01*
X43330Y89800D01*
X40700Y88867D02*
X42833Y91000D01*
X49500D01*
X43330Y89800D02*
X49997D01*
X53003Y99700D02*
X64700D01*
X51500Y93000D02*
Y98197D01*
X53003Y99700D01*
X53500Y98500D02*
X65500D01*
X52700Y97700D02*
X53500Y98500D01*
X52700Y92503D02*
Y97700D01*
X68000Y101000D02*
X76000D01*
X65500Y98500D02*
X68000Y101000D01*
X64700Y99700D02*
X71000Y106000D01*
X49997Y89800D02*
X52700Y92503D01*
X76000Y101000D02*
X81000Y106000D01*
X49500Y91000D02*
X51500Y93000D01*
X68677Y49433D02*
X74000D01*
X73000Y27000D02*
Y29000D01*
Y27000D02*
X78500Y21500D01*
X44000Y87500D02*
X53500D01*
X38000Y39000D02*
X41000Y36000D01*
X61000Y43500D02*
Y49433D01*
X2000Y20000D02*
X4500Y17500D01*
X12500D01*
X2000Y20000D02*
X4500Y17500D01*
X3500Y15500D02*
X9500Y9500D01*
X1000Y15500D02*
X3500D01*
X-3000Y19500D02*
X1000Y15500D01*
X2000Y20000D02*
Y20000D01*
X21343Y42000D02*
X21382D01*
X63559Y39500D02*
Y49433D01*
X66118Y41500D02*
Y49433D01*
X16157Y42000D02*
X21343D01*
X65461Y76814D02*
X66118Y76156D01*
X65461Y76814D02*
Y80500D01*
X66118Y72662D02*
Y76156D01*
X-3000Y19500D02*
Y20000D01*
X57260Y10740D02*
X60260Y13740D01*
X71000Y36000D02*
X74000Y33000D01*
X68500Y35000D02*
X71744Y31756D01*
X71000Y36000D02*
Y37000D01*
X76000Y37500D02*
X103756Y65256D01*
X75500Y37500D02*
X76000D01*
X73000Y39500D02*
X73100Y39600D01*
X75900D01*
X102500Y66200D01*
X64500Y3500D02*
X64500Y3500D01*
X64000Y3500D02*
X64500D01*
D14*
X80900Y87000D02*
D03*
X87500D02*
D03*
X130600Y107000D02*
D03*
X124000D02*
D03*
X114400Y90000D02*
D03*
X121000D02*
D03*
X114400Y80000D02*
D03*
X121000D02*
D03*
X114400Y70500D02*
D03*
X121000D02*
D03*
X73400Y1500D02*
D03*
X80000D02*
D03*
X73400Y6500D02*
D03*
X80000D02*
D03*
D15*
X6500Y51039D02*
D03*
Y55961D02*
D03*
X130000Y29461D02*
D03*
Y24540D02*
D03*
D37*
X60961Y113000D02*
D03*
X56040D02*
D03*
X35039Y58000D02*
D03*
X39961D02*
D03*
X34539Y21000D02*
D03*
X39461D02*
D03*
X60539Y80500D02*
D03*
X65461D02*
D03*
D46*
X16157Y42000D02*
D03*
X10843D02*
D03*
X26657D02*
D03*
X21343D02*
D03*
X-12843Y-10000D02*
D03*
X-18158D02*
D03*
X-18157Y10000D02*
D03*
X-12843D02*
D03*
D47*
X108500Y103600D02*
D03*
Y97000D02*
D03*
D48*
X29000Y11000D02*
X30000Y10000D01*
X23000Y11000D02*
X29000D01*
X18000Y16000D02*
X23000Y11000D01*
X18000Y16000D02*
Y18000D01*
X14000Y22000D02*
X18000Y18000D01*
X11500Y22000D02*
X14000D01*
X8500Y25000D02*
X11500Y22000D01*
X8500Y25000D02*
Y30500D01*
X4000Y35000D02*
X8500Y30500D01*
X4000Y35000D02*
Y45000D01*
X2000Y47000D02*
X4000Y45000D01*
X2000Y47000D02*
Y61000D01*
X61000Y106000D02*
Y112961D01*
X10843Y42000D02*
Y49857D01*
D49*
X80900Y82600D02*
X86000Y77500D01*
X80900Y82600D02*
Y87000D01*
X77500Y90400D02*
X80900Y87000D01*
X77500Y90400D02*
Y94000D01*
X59000Y86000D02*
X70000D01*
X55000Y82000D02*
X59000Y86000D01*
X46500Y82000D02*
X55000D01*
X38760Y74260D02*
X46500Y82000D01*
X38760Y64957D02*
Y74260D01*
X19900Y58000D02*
Y66100D01*
X18500Y67500D02*
X19900Y66100D01*
X17000Y67500D02*
X18500D01*
X12500Y72000D02*
X17000Y67500D01*
X19900Y58000D02*
X25500D01*
X7340Y50200D02*
X16000D01*
Y54500D01*
X138500Y87000D02*
Y93500D01*
X121000Y80000D02*
X129815D01*
X121000Y90000D02*
X129972D01*
D50*
X123000Y17000D02*
Y21000D01*
X120500Y14500D02*
X123000Y17000D01*
X103500Y14500D02*
X120500D01*
X101000Y12000D02*
X103500Y14500D01*
X77500Y12000D02*
X101000D01*
X35039Y58000D02*
Y63539D01*
X36457Y64957D01*
X38760D01*
X100000Y69500D02*
Y73300D01*
X130750Y47250D02*
X138500Y55000D01*
X123000Y39500D02*
X130750Y47250D01*
X102500Y57000D02*
X121000D01*
X130750Y47250D01*
X123539Y29461D02*
X130000D01*
X123000Y30000D02*
Y39500D01*
Y25500D02*
Y30000D01*
Y21000D02*
Y25500D01*
X138500Y55000D02*
Y60000D01*
X100500Y73800D02*
Y86800D01*
D52*
X12500Y27500D02*
X17000Y23000D01*
X28000D01*
X108500Y103600D02*
X111100Y101000D01*
X112000D01*
X114000Y99000D01*
Y96500D02*
Y99000D01*
X121000Y70500D02*
X129842D01*
X114800Y34800D02*
X114900Y34900D01*
X109900Y34800D02*
X114800D01*
D57*
X18800Y87700D02*
Y120500D01*
X15300Y87300D02*
X20300D01*
D60*
X77500Y12000D02*
Y16000D01*
Y10600D02*
Y12000D01*
X43760Y5760D02*
X45020Y4500D01*
X46957D01*
X73400Y6500D02*
X77500Y10600D01*
X34539Y23539D02*
X39100Y28100D01*
X34539Y21000D02*
Y23539D01*
X41000Y3000D02*
X43760Y5760D01*
X38000Y3000D02*
X41000D01*
X65500Y30500D02*
Y32000D01*
X62740Y27740D02*
X65500Y30500D01*
X28000Y23000D02*
X30000Y21000D01*
X34539D01*
X54500Y12043D02*
Y28100D01*
X46957Y4500D02*
X54500Y12043D01*
X39100Y28100D02*
X54500D01*
X62380D01*
X62740Y27740D02*
X65760D01*
X77500Y16000D01*
D61*
X87500Y94000D02*
D03*
X77500D02*
D03*
X67500D02*
D03*
D62*
X57500D02*
D03*
D63*
X130000Y99870D02*
D03*
Y90028D02*
D03*
Y80185D02*
D03*
Y70342D02*
D03*
D64*
Y60500D02*
D03*
D65*
X12500Y17500D02*
D03*
Y27500D02*
D03*
X22500Y17500D02*
D03*
Y27500D02*
D03*
D66*
X0Y122047D02*
D03*
X122047D02*
D03*
Y0D02*
D03*
X0D02*
D03*
D67*
X-14736Y62780D02*
D03*
Y35220D02*
D03*
D68*
X-3713Y58843D02*
D03*
Y39157D02*
D03*
D69*
X51000Y106000D02*
D03*
D70*
X61000D02*
D03*
X71000D02*
D03*
X81000D02*
D03*
X-15700Y95600D02*
D03*
Y85600D02*
D03*
Y75600D02*
D03*
D71*
Y105600D02*
D03*
D72*
X3000Y-17500D02*
D03*
D73*
X-2000D02*
D03*
X-7000D02*
D03*
D74*
X2500Y25000D02*
D03*
D75*
Y20000D02*
D03*
X-2500Y25000D02*
D03*
Y20000D02*
D03*
X-7500Y25000D02*
D03*
Y20000D02*
D03*
X-12500Y25000D02*
D03*
Y20000D02*
D03*
X-17500Y25000D02*
D03*
Y20000D02*
D03*
X39000Y131000D02*
D03*
X28000D02*
D03*
D76*
X82500Y129000D02*
D03*
D77*
X92343D02*
D03*
D78*
X81500Y136500D02*
D03*
D79*
X93500D02*
D03*
D80*
X95000Y105000D02*
D03*
X30000Y10000D02*
D03*
X2000Y61000D02*
D03*
X86000Y77500D02*
D03*
X70000Y86000D02*
D03*
X52000Y14000D02*
D03*
X100000Y69500D02*
D03*
X102500Y57000D02*
D03*
X22500Y32000D02*
D03*
X44000Y39500D02*
D03*
X69000Y-3500D02*
D03*
X74500Y14500D02*
D03*
X60000Y-6500D02*
D03*
X29000Y16500D02*
D03*
X57000Y44500D02*
D03*
X16000Y54500D02*
D03*
X37000Y6000D02*
D03*
X38000Y3000D02*
D03*
X59000Y20500D02*
D03*
X44000D02*
D03*
X47500Y42500D02*
D03*
X51000Y43500D02*
D03*
X43500Y48500D02*
D03*
X1500Y42500D02*
D03*
X17500Y12500D02*
D03*
X69000Y6000D02*
D03*
X-18000Y14000D02*
D03*
X-13000Y-14000D02*
D03*
X66000Y41500D02*
D03*
X138500Y93500D02*
D03*
X65500Y32000D02*
D03*
X44000Y84000D02*
D03*
X41000Y83500D02*
D03*
X78500Y21500D02*
D03*
X73000Y29000D02*
D03*
X53500Y87500D02*
D03*
X44000D02*
D03*
X37500Y40000D02*
D03*
X41000Y36000D02*
D03*
X117900Y37800D02*
D03*
X114900Y34900D02*
D03*
X109900Y34800D02*
D03*
X81000Y16000D02*
D03*
X61000Y43500D02*
D03*
X13900Y87300D02*
D03*
X24269Y99800D02*
D03*
Y104131D02*
D03*
X-100Y78900D02*
D03*
X0Y82000D02*
D03*
X-2000Y99100D02*
D03*
X63500Y39500D02*
D03*
X34000Y7000D02*
D03*
X28000Y23000D02*
D03*
X60000Y2000D02*
D03*
X16800Y87300D02*
D03*
X19400Y118200D02*
D03*
X19300Y121700D02*
D03*
X19500Y114900D02*
D03*
X19700Y87300D02*
D03*
X107500Y10500D02*
D03*
X40500Y122000D02*
D03*
X34500Y118000D02*
D03*
X40500D02*
D03*
X45000Y118000D02*
D03*
X40500Y114000D02*
D03*
X87500Y69000D02*
D03*
X35500Y87500D02*
D03*
Y84000D02*
D03*
X133500Y11000D02*
D03*
X91000Y-3000D02*
D03*
X95500Y-18299D02*
D03*
X51500Y30500D02*
D03*
X60500Y-18299D02*
D03*
X34500Y122000D02*
D03*
X30000Y110000D02*
D03*
X28500Y117500D02*
D03*
X26500Y110000D02*
D03*
X33500Y89906D02*
D03*
X31000Y87500D02*
D03*
X33000Y81000D02*
D03*
X31000Y84000D02*
D03*
X76000Y58500D02*
D03*
X34000Y127000D02*
D03*
X34000Y74500D02*
D03*
X27500Y87500D02*
D03*
X28500Y122000D02*
D03*
X12000Y137000D02*
D03*
X19500Y137000D02*
D03*
X4000Y137000D02*
D03*
X0Y85000D02*
D03*
X76000Y69000D02*
D03*
X-12000Y130500D02*
D03*
X-2000Y105000D02*
D03*
X31500Y44000D02*
D03*
X-12000Y114000D02*
D03*
X-2000Y102000D02*
D03*
X21000Y78500D02*
D03*
X0Y70500D02*
D03*
X-7000D02*
D03*
X30500Y25500D02*
D03*
X26500Y-2000D02*
D03*
X11000Y-11500D02*
D03*
X-15000Y0D02*
D03*
X16000Y1500D02*
D03*
X28500Y72500D02*
D03*
X32931Y95469D02*
D03*
X28600D02*
D03*
X24269D02*
D03*
X32931Y99800D02*
D03*
X28600D02*
D03*
X32931Y104131D02*
D03*
X28600D02*
D03*
X139000Y118000D02*
D03*
Y120500D02*
D03*
X16000Y-5000D02*
D03*
X13000Y7000D02*
D03*
X10000Y9000D02*
D03*
X118000Y42000D02*
D03*
X130000Y35500D02*
D03*
X123000Y30000D02*
D03*
Y25500D02*
D03*
Y21000D02*
D03*
X109000Y31500D02*
D03*
X92500Y121500D02*
D03*
X12500Y113500D02*
D03*
X49500Y-2000D02*
D03*
X68500Y35000D02*
D03*
X71000Y37000D02*
D03*
X75500Y37500D02*
D03*
X73000Y39500D02*
D03*
X75000Y50000D02*
D03*
X64000Y3500D02*
D03*
X7000Y38500D02*
D03*
X66500Y-7500D02*
D03*
D81*
X42611Y-8389D02*
D03*
D82*
X42500Y72043D02*
D03*
X38760Y64957D02*
D03*
D83*
X46240D02*
D03*
D84*
X12500Y72000D02*
D03*
D85*
X20374D02*
D03*
X16437Y63339D02*
D03*
D86*
X12500Y58000D02*
D03*
X16200Y50000D02*
D03*
X19900Y58000D02*
D03*
D87*
X138500Y60000D02*
D03*
Y67000D02*
D03*
Y80000D02*
D03*
Y87000D02*
D03*
X26000Y50500D02*
D03*
Y57500D02*
D03*
D88*
X108500Y83100D02*
D03*
Y90500D02*
D03*
X100500Y86800D02*
D03*
X108500Y70100D02*
D03*
Y77500D02*
D03*
X100500Y73800D02*
D03*
X122000Y100200D02*
D03*
X114000Y103900D02*
D03*
Y96500D02*
D03*
D89*
X60740Y7260D02*
D03*
X57260Y10740D02*
D03*
X63740Y10260D02*
D03*
X60260Y13740D02*
D03*
D90*
X43740Y12740D02*
D03*
X40260Y9260D02*
D03*
X62740Y27740D02*
D03*
X59260Y24260D02*
D03*
X43760Y5760D02*
D03*
X47240Y9240D02*
D03*
D91*
X53323Y72662D02*
D03*
X55882D02*
D03*
X58441D02*
D03*
X61000D02*
D03*
X63559D02*
D03*
X66118D02*
D03*
X68677D02*
D03*
X53323Y49433D02*
D03*
X55882D02*
D03*
X58441D02*
D03*
X61000D02*
D03*
X63559D02*
D03*
X66118D02*
D03*
D92*
X68677D02*
D03*
M02*
