G04 Layer_Color=16711935*
%FSLAX25Y25*%
%MOIN*%
G70*
G01*
G75*
%ADD75C,0.04000*%
%ADD100R,0.04300X0.04300*%
%ADD101R,0.03950X0.04147*%
%ADD123R,0.04147X0.03950*%
%ADD132R,0.03753X0.04343*%
%ADD133R,0.04300X0.04300*%
%ADD134C,0.06706*%
%ADD135R,0.06706X0.06706*%
%ADD136O,0.07887X0.07099*%
%ADD137R,0.07887X0.07099*%
%ADD138C,0.05200*%
%ADD139C,0.18800*%
%ADD140O,0.06902X0.04343*%
%ADD141O,0.04540X0.05721*%
%ADD142R,0.07800X0.07800*%
%ADD143C,0.07800*%
%ADD144R,0.07800X0.07800*%
%ADD145R,0.04737X0.04737*%
%ADD146C,0.04737*%
%ADD147R,0.04800X0.04800*%
%ADD148C,0.04800*%
%ADD149O,0.07099X0.08300*%
%ADD150R,0.07099X0.08300*%
%ADD151C,0.07800*%
%ADD152R,0.06800X0.08300*%
%ADD153R,0.13000X0.25000*%
%ADD154R,0.03162X0.07099*%
G04:AMPARAMS|DCode=155|XSize=31.62mil|YSize=70.99mil|CornerRadius=9.91mil|HoleSize=0mil|Usage=FLASHONLY|Rotation=0.000|XOffset=0mil|YOffset=0mil|HoleType=Round|Shape=RoundedRectangle|*
%AMROUNDEDRECTD155*
21,1,0.03162,0.05118,0,0,0.0*
21,1,0.01181,0.07099,0,0,0.0*
1,1,0.01981,0.00591,-0.02559*
1,1,0.01981,-0.00591,-0.02559*
1,1,0.01981,-0.00591,0.02559*
1,1,0.01981,0.00591,0.02559*
%
%ADD155ROUNDEDRECTD155*%
G04:AMPARAMS|DCode=156|XSize=39.5mil|YSize=43.43mil|CornerRadius=11.87mil|HoleSize=0mil|Usage=FLASHONLY|Rotation=180.000|XOffset=0mil|YOffset=0mil|HoleType=Round|Shape=RoundedRectangle|*
%AMROUNDEDRECTD156*
21,1,0.03950,0.01969,0,0,180.0*
21,1,0.01575,0.04343,0,0,180.0*
1,1,0.02375,-0.00787,0.00984*
1,1,0.02375,0.00787,0.00984*
1,1,0.02375,0.00787,-0.00984*
1,1,0.02375,-0.00787,-0.00984*
%
%ADD156ROUNDEDRECTD156*%
%ADD157R,0.03950X0.04343*%
G04:AMPARAMS|DCode=158|XSize=38mil|YSize=43mil|CornerRadius=11.5mil|HoleSize=0mil|Usage=FLASHONLY|Rotation=0.000|XOffset=0mil|YOffset=0mil|HoleType=Round|Shape=RoundedRectangle|*
%AMROUNDEDRECTD158*
21,1,0.03800,0.02000,0,0,0.0*
21,1,0.01500,0.04300,0,0,0.0*
1,1,0.02300,0.00750,-0.01000*
1,1,0.02300,-0.00750,-0.01000*
1,1,0.02300,-0.00750,0.01000*
1,1,0.02300,0.00750,0.01000*
%
%ADD158ROUNDEDRECTD158*%
%ADD159R,0.04800X0.04800*%
G04:AMPARAMS|DCode=160|XSize=38mil|YSize=43mil|CornerRadius=11.5mil|HoleSize=0mil|Usage=FLASHONLY|Rotation=270.000|XOffset=0mil|YOffset=0mil|HoleType=Round|Shape=RoundedRectangle|*
%AMROUNDEDRECTD160*
21,1,0.03800,0.02000,0,0,270.0*
21,1,0.01500,0.04300,0,0,270.0*
1,1,0.02300,-0.01000,-0.00750*
1,1,0.02300,-0.01000,0.00750*
1,1,0.02300,0.01000,0.00750*
1,1,0.02300,0.01000,-0.00750*
%
%ADD160ROUNDEDRECTD160*%
G04:AMPARAMS|DCode=161|XSize=39.5mil|YSize=41.47mil|CornerRadius=0mil|HoleSize=0mil|Usage=FLASHONLY|Rotation=45.000|XOffset=0mil|YOffset=0mil|HoleType=Round|Shape=Rectangle|*
%AMROTATEDRECTD161*
4,1,4,0.00070,-0.02862,-0.02862,0.00070,-0.00070,0.02862,0.02862,-0.00070,0.00070,-0.02862,0.0*
%
%ADD161ROTATEDRECTD161*%

G04:AMPARAMS|DCode=162|XSize=39.5mil|YSize=41.47mil|CornerRadius=0mil|HoleSize=0mil|Usage=FLASHONLY|Rotation=135.000|XOffset=0mil|YOffset=0mil|HoleType=Round|Shape=Rectangle|*
%AMROTATEDRECTD162*
4,1,4,0.02862,0.00070,-0.00070,-0.02862,-0.02862,-0.00070,0.00070,0.02862,0.02862,0.00070,0.0*
%
%ADD162ROTATEDRECTD162*%

%ADD163O,0.02572X0.06312*%
%ADD164R,0.02572X0.06312*%
D75*
X42611Y-8389D02*
D03*
D100*
X80900Y87000D02*
D03*
X87500D02*
D03*
X130600Y107000D02*
D03*
X124000D02*
D03*
X114400Y90000D02*
D03*
X121000D02*
D03*
X114400Y80000D02*
D03*
X121000D02*
D03*
X114400Y70500D02*
D03*
X121000D02*
D03*
X73400Y1500D02*
D03*
X80000D02*
D03*
X73400Y6500D02*
D03*
X80000D02*
D03*
D101*
X6500Y51039D02*
D03*
Y55961D02*
D03*
X130000Y29461D02*
D03*
Y24540D02*
D03*
D123*
X60961Y113000D02*
D03*
X56040D02*
D03*
X35039Y58000D02*
D03*
X39961D02*
D03*
X34539Y21000D02*
D03*
X39461D02*
D03*
X60539Y80500D02*
D03*
X65461D02*
D03*
D132*
X16157Y42000D02*
D03*
X10843D02*
D03*
X26657D02*
D03*
X21343D02*
D03*
X-12843Y-10000D02*
D03*
X-18158D02*
D03*
X-18157Y10000D02*
D03*
X-12843D02*
D03*
D133*
X108500Y103600D02*
D03*
Y97000D02*
D03*
D134*
X87500Y94000D02*
D03*
X77500D02*
D03*
X67500D02*
D03*
D135*
X57500D02*
D03*
D136*
X130000Y99870D02*
D03*
Y90028D02*
D03*
Y80185D02*
D03*
Y70342D02*
D03*
D137*
Y60500D02*
D03*
D138*
X12500Y17500D02*
D03*
Y27500D02*
D03*
X22500Y17500D02*
D03*
Y27500D02*
D03*
D139*
X0Y122047D02*
D03*
X122047D02*
D03*
Y0D02*
D03*
X0D02*
D03*
D140*
X-14736Y62780D02*
D03*
Y35220D02*
D03*
D141*
X-3713Y58843D02*
D03*
Y39157D02*
D03*
D142*
X51000Y106000D02*
D03*
D143*
X61000D02*
D03*
X71000D02*
D03*
X81000D02*
D03*
X-15700Y95600D02*
D03*
Y85600D02*
D03*
Y75600D02*
D03*
D144*
Y105600D02*
D03*
D145*
X3000Y-17500D02*
D03*
D146*
X-2000D02*
D03*
X-7000D02*
D03*
D147*
X2500Y25000D02*
D03*
D148*
Y20000D02*
D03*
X-2500Y25000D02*
D03*
Y20000D02*
D03*
X-7500Y25000D02*
D03*
Y20000D02*
D03*
X-12500Y25000D02*
D03*
Y20000D02*
D03*
X-17500Y25000D02*
D03*
Y20000D02*
D03*
D149*
X82500Y129000D02*
D03*
D150*
X92343D02*
D03*
D151*
X81500Y136500D02*
D03*
D152*
X93500D02*
D03*
D153*
X28500Y103000D02*
D03*
D154*
X42500Y72043D02*
D03*
X38760Y64957D02*
D03*
D155*
X46240D02*
D03*
D156*
X12500Y72000D02*
D03*
D157*
X20374D02*
D03*
X16437Y63339D02*
D03*
D158*
X12500Y58000D02*
D03*
X16200Y50000D02*
D03*
X19900Y58000D02*
D03*
D159*
X138500Y60000D02*
D03*
Y67000D02*
D03*
Y80000D02*
D03*
Y87000D02*
D03*
X26000Y50500D02*
D03*
Y57500D02*
D03*
D160*
X108500Y83100D02*
D03*
Y90500D02*
D03*
X100500Y86800D02*
D03*
X108500Y70100D02*
D03*
Y77500D02*
D03*
X100500Y73800D02*
D03*
X122000Y100200D02*
D03*
X114000Y103900D02*
D03*
Y96500D02*
D03*
D161*
X60740Y7260D02*
D03*
X57260Y10740D02*
D03*
X63740Y10260D02*
D03*
X60260Y13740D02*
D03*
D162*
X43740Y12740D02*
D03*
X40260Y9260D02*
D03*
X62740Y27740D02*
D03*
X59260Y24260D02*
D03*
X43760Y5760D02*
D03*
X47240Y9240D02*
D03*
D163*
X53323Y72662D02*
D03*
X55882D02*
D03*
X58441D02*
D03*
X61000D02*
D03*
X63559D02*
D03*
X66118D02*
D03*
X68677D02*
D03*
X53323Y49433D02*
D03*
X55882D02*
D03*
X58441D02*
D03*
X61000D02*
D03*
X63559D02*
D03*
X66118D02*
D03*
D164*
X68677D02*
D03*
M02*
