M48
;Layer_Color=9474304
;FILE_FORMAT=2:5
INCH,LZ
;TYPE=PLATED
T1F00S00C0.01200
T3F00S00C0.02000
T5F00S00C0.02362
T6F00S00C0.02700
T7F00S00C0.03200
T8F00S00C0.03543
T9F00S00C0.03900
T10F00S00C0.04500
T11F00S00C0.13780
%
T01
X-0013Y-0014
X-0015Y0
X-0018Y0014
X001Y0009
X0013Y0007
X0016Y00015
Y-0005
X0011Y-00115
X00265Y-0002
X003Y001
X0034Y0007
X0029Y00165
X0028Y0023
X00305Y00255
X00225Y0032
X00175Y00125
X0037Y0006
X0038Y0003
X00495Y-0002
X006Y0002
X0064Y00035
X0069Y0006
Y-00035
X00665Y-00075
X006Y-00065
X00605Y-0018299
X00955
X0091Y-0003
X0081Y0016
X00745Y00145
X00785Y00215
X0073Y0029
X00655Y0032
X00515Y00305
X0052Y0014
X0059Y00205
X0044
X01075Y00105
X0109Y00315
X0123Y003
Y00255
Y0021
X01335Y0011
X013Y00355
X01179Y00378
X0118Y0042
X01149Y00349
X01099Y00348
X01025Y0057
X01Y00695
X00875Y0069
X0086Y00775
X0076Y0069
Y00585
X0075Y005
X0073Y00395
X0071Y0037
X00685Y0035
X0066Y00415
X00635Y00395
X0061Y00435
X0057Y00445
X0051Y00435
X00475Y00425
X0044Y00395
X0041Y0036
X00375Y004
X00435Y00485
X0044Y0084
X0041Y00835
X00355Y0084
Y00875
X0044Y00875
X00535
X007Y0086
X0095Y0105
X00925Y01215
X0139Y01205
Y0118
X01385Y00935
X0045Y0118
X00405Y0118
Y0122
X00345
Y0118
X00405Y0114
X00755Y00375
X00315Y0044
X0016Y00545
X0002Y0061
X0Y00705
X-0007
X-00001Y00789
X0Y0082
X0Y0085
X-0002Y00991
Y0102
Y0105
X-0012Y0114
Y01305
X0004Y0137
X0012
X00195Y0137
X00193Y01217
X00194Y01182
X00195Y01149
X00125Y01135
X00265Y011
X003Y011
X00286Y0104131
X0024269
Y00998
Y0095469
X00286
Y00998
X0032931
Y0095469
X00335Y0089906
X0031Y00875
Y0084
X0033Y0081
X0034Y00745
X00285Y00725
X0021Y00785
X00197Y00873
X00168
X00139
X00275Y00875
X0032931Y0104131
X00285Y01175
X00285Y0122
X0034Y0127
X0007Y00385
X00015Y00425
T03
X0042611Y-0008389
X0039Y0131
X0028
T05
X-0007Y-00175
X-0002
X0003
T06
X-00175Y002
X-00125
X-00075
X-00025
X00025
Y0025
X-00025
X-00075
X-00125
X-00175
T07
X00125Y00175
Y00275
X00225
Y00175
T08
X00575Y0094
X00675
X00775
X00875
T09
X0051Y0106
X0061
X0071
X0081
X00825Y0129
X0092343
X013Y009987
Y0090028
Y0080185
Y0070342
Y00605
X-00157Y00756
Y00856
Y00956
Y01056
T10
X00815Y01365
X00935
T11
X0Y0
X0122047
Y0122047
X0
M30
