G04 Layer_Physical_Order=1*
G04 Layer_Color=255*
%FSLAX25Y25*%
%MOIN*%
G70*
G01*
G75*
%ADD10C,0.00600*%
%ADD11R,0.06693X0.15748*%
%ADD12R,0.06299X0.15748*%
%ADD13R,0.03000X0.05000*%
%ADD14R,0.03500X0.03500*%
%ADD15R,0.03150X0.03347*%
G04:AMPARAMS|DCode=16|XSize=35.43mil|YSize=29.53mil|CornerRadius=0mil|HoleSize=0mil|Usage=FLASHONLY|Rotation=135.000|XOffset=0mil|YOffset=0mil|HoleType=Round|Shape=Rectangle|*
%AMROTATEDRECTD16*
4,1,4,0.02297,-0.00209,0.00209,-0.02297,-0.02297,0.00209,-0.00209,0.02297,0.02297,-0.00209,0.0*
%
%ADD16ROTATEDRECTD16*%

%ADD17R,0.09449X0.05906*%
%ADD18R,0.04331X0.02362*%
%ADD19R,0.03937X0.06693*%
%ADD20R,0.06000X0.07500*%
G04:AMPARAMS|DCode=21|XSize=78.74mil|YSize=39.37mil|CornerRadius=9.84mil|HoleSize=0mil|Usage=FLASHONLY|Rotation=180.000|XOffset=0mil|YOffset=0mil|HoleType=Round|Shape=RoundedRectangle|*
%AMROUNDEDRECTD21*
21,1,0.07874,0.01969,0,0,180.0*
21,1,0.05906,0.03937,0,0,180.0*
1,1,0.01969,-0.02953,0.00984*
1,1,0.01969,0.02953,0.00984*
1,1,0.01969,0.02953,-0.00984*
1,1,0.01969,-0.02953,-0.00984*
%
%ADD21ROUNDEDRECTD21*%
%ADD22R,0.12500X0.04500*%
%ADD23R,0.04724X0.07087*%
%ADD24R,0.12205X0.04724*%
%ADD25R,0.09449X0.04724*%
%ADD26R,0.06890X0.01575*%
G04:AMPARAMS|DCode=27|XSize=9.84mil|YSize=33.47mil|CornerRadius=2.46mil|HoleSize=0mil|Usage=FLASHONLY|Rotation=225.000|XOffset=0mil|YOffset=0mil|HoleType=Round|Shape=RoundedRectangle|*
%AMROUNDEDRECTD27*
21,1,0.00984,0.02854,0,0,225.0*
21,1,0.00492,0.03347,0,0,225.0*
1,1,0.00492,-0.01183,0.00835*
1,1,0.00492,-0.00835,0.01183*
1,1,0.00492,0.01183,-0.00835*
1,1,0.00492,0.00835,-0.01183*
%
%ADD27ROUNDEDRECTD27*%
G04:AMPARAMS|DCode=28|XSize=9.84mil|YSize=35.43mil|CornerRadius=0mil|HoleSize=0mil|Usage=FLASHONLY|Rotation=225.000|XOffset=0mil|YOffset=0mil|HoleType=Round|Shape=Round|*
%AMOVALD28*
21,1,0.02559,0.00984,0.00000,0.00000,315.0*
1,1,0.00984,-0.00905,0.00905*
1,1,0.00984,0.00905,-0.00905*
%
%ADD28OVALD28*%

G04:AMPARAMS|DCode=29|XSize=9.84mil|YSize=33.47mil|CornerRadius=0mil|HoleSize=0mil|Usage=FLASHONLY|Rotation=225.000|XOffset=0mil|YOffset=0mil|HoleType=Round|Shape=Round|*
%AMOVALD29*
21,1,0.02362,0.00984,0.00000,0.00000,315.0*
1,1,0.00984,-0.00835,0.00835*
1,1,0.00984,0.00835,-0.00835*
%
%ADD29OVALD29*%

G04:AMPARAMS|DCode=30|XSize=9.84mil|YSize=33.47mil|CornerRadius=0mil|HoleSize=0mil|Usage=FLASHONLY|Rotation=135.000|XOffset=0mil|YOffset=0mil|HoleType=Round|Shape=Round|*
%AMOVALD30*
21,1,0.02362,0.00984,0.00000,0.00000,225.0*
1,1,0.00984,0.00835,0.00835*
1,1,0.00984,-0.00835,-0.00835*
%
%ADD30OVALD30*%

G04:AMPARAMS|DCode=31|XSize=9.84mil|YSize=35.43mil|CornerRadius=0mil|HoleSize=0mil|Usage=FLASHONLY|Rotation=135.000|XOffset=0mil|YOffset=0mil|HoleType=Round|Shape=Round|*
%AMOVALD31*
21,1,0.02559,0.00984,0.00000,0.00000,225.0*
1,1,0.00984,0.00905,0.00905*
1,1,0.00984,-0.00905,-0.00905*
%
%ADD31OVALD31*%

%ADD32P,0.28674X4X180.0*%
%ADD33R,0.05118X0.02756*%
G04:AMPARAMS|DCode=34|XSize=27.56mil|YSize=51.18mil|CornerRadius=6.89mil|HoleSize=0mil|Usage=FLASHONLY|Rotation=90.000|XOffset=0mil|YOffset=0mil|HoleType=Round|Shape=RoundedRectangle|*
%AMROUNDEDRECTD34*
21,1,0.02756,0.03740,0,0,90.0*
21,1,0.01378,0.05118,0,0,90.0*
1,1,0.01378,0.01870,0.00689*
1,1,0.01378,0.01870,-0.00689*
1,1,0.01378,-0.01870,-0.00689*
1,1,0.01378,-0.01870,0.00689*
%
%ADD34ROUNDEDRECTD34*%
%ADD35R,0.03150X0.03150*%
G04:AMPARAMS|DCode=36|XSize=31.5mil|YSize=31.5mil|CornerRadius=7.87mil|HoleSize=0mil|Usage=FLASHONLY|Rotation=90.000|XOffset=0mil|YOffset=0mil|HoleType=Round|Shape=RoundedRectangle|*
%AMROUNDEDRECTD36*
21,1,0.03150,0.01575,0,0,90.0*
21,1,0.01575,0.03150,0,0,90.0*
1,1,0.01575,0.00787,0.00787*
1,1,0.01575,0.00787,-0.00787*
1,1,0.01575,-0.00787,-0.00787*
1,1,0.01575,-0.00787,0.00787*
%
%ADD36ROUNDEDRECTD36*%
%ADD37R,0.03347X0.03150*%
%ADD38R,0.05512X0.01772*%
%ADD39O,0.05512X0.01772*%
%ADD40R,0.11811X0.11811*%
%ADD41P,0.07071X4X180.0*%
%ADD42O,0.04331X0.02000*%
%ADD43R,0.04331X0.02000*%
%ADD44R,0.05000X0.05000*%
%ADD45R,0.04000X0.04000*%
%ADD46R,0.02953X0.03543*%
%ADD47R,0.03500X0.03500*%
%ADD48C,0.00700*%
%ADD49C,0.01000*%
%ADD50C,0.01500*%
%ADD51C,0.04000*%
%ADD52C,0.00800*%
%ADD53C,0.02000*%
%ADD54C,0.01600*%
%ADD55C,0.03000*%
%ADD56C,0.02500*%
%ADD57C,0.06000*%
%ADD58C,0.05000*%
%ADD59C,0.08000*%
%ADD60C,0.01200*%
%ADD61C,0.05906*%
%ADD62R,0.05906X0.05906*%
%ADD63O,0.07087X0.06299*%
%ADD64R,0.07087X0.06299*%
%ADD65C,0.04400*%
%ADD66C,0.18000*%
%ADD67O,0.06102X0.03543*%
%ADD68O,0.03740X0.04921*%
%ADD69R,0.07000X0.07000*%
%ADD70C,0.07000*%
%ADD71R,0.07000X0.07000*%
%ADD72R,0.03937X0.03937*%
%ADD73C,0.03937*%
%ADD74R,0.04000X0.04000*%
%ADD75C,0.04000*%
%ADD76O,0.06299X0.07500*%
%ADD77R,0.06299X0.07500*%
%ADD78C,0.07000*%
%ADD79R,0.06000X0.07500*%
%ADD80C,0.02400*%
%ADD81C,0.03200*%
G36*
X54600Y140434D02*
X26500D01*
X25482Y140300D01*
X24533Y139907D01*
X23719Y139281D01*
X17819Y133381D01*
X17193Y132567D01*
X16800Y131618D01*
X16673Y130650D01*
X13250D01*
Y123350D01*
X14962D01*
Y115800D01*
X15113Y114651D01*
X15177Y114498D01*
X14725Y113822D01*
X14539Y112886D01*
Y110973D01*
X14224Y110910D01*
X13468Y110405D01*
X12963Y109649D01*
X12785Y108757D01*
X12526Y108441D01*
X11731D01*
X11097Y109075D01*
X11082Y109192D01*
X10815Y109836D01*
X10390Y110390D01*
X9836Y110815D01*
X9192Y111082D01*
X8500Y111173D01*
X7438D01*
X7302Y111654D01*
X7474Y111760D01*
X8992Y113056D01*
X10288Y114573D01*
X11330Y116274D01*
X12094Y118118D01*
X12560Y120058D01*
X12717Y122047D01*
X12560Y124037D01*
X12094Y125977D01*
X11330Y127821D01*
X10288Y129522D01*
X8992Y131039D01*
X7474Y132335D01*
X5773Y133378D01*
X3930Y134142D01*
X1989Y134607D01*
X0Y134764D01*
X-1989Y134607D01*
X-3930Y134142D01*
X-5773Y133378D01*
X-7474Y132335D01*
X-8992Y131039D01*
X-10288Y129522D01*
X-11330Y127821D01*
X-12094Y125977D01*
X-12560Y124037D01*
X-12717Y122047D01*
X-12560Y120058D01*
X-12094Y118118D01*
X-11330Y116274D01*
X-10288Y114573D01*
X-8992Y113056D01*
X-7474Y111760D01*
X-7302Y111654D01*
X-7438Y111173D01*
X-12800D01*
X-13492Y111082D01*
X-14136Y110815D01*
X-14547Y110500D01*
X-20307D01*
Y132654D01*
X-11787Y141173D01*
X54600D01*
Y140434D01*
D02*
G37*
G36*
X20195Y29840D02*
X20206Y29767D01*
X19705Y29114D01*
X19382Y28335D01*
X19338Y28000D01*
X22500D01*
Y27500D01*
X23000D01*
Y24338D01*
X23335Y24382D01*
X23767Y24561D01*
X23979Y24481D01*
X24235Y24214D01*
X24167Y23870D01*
Y21156D01*
X23751Y20878D01*
X23440Y21007D01*
X22500Y21131D01*
X21560Y21007D01*
X20685Y20645D01*
X19932Y20067D01*
X19355Y19316D01*
X19321Y19233D01*
X18718D01*
X16126Y21826D01*
X15563Y22201D01*
X14900Y22333D01*
X10600D01*
X10600Y22333D01*
X9937Y22201D01*
X9374Y21826D01*
X6136Y18587D01*
X5712Y18871D01*
X5812Y19112D01*
X5929Y20000D01*
X5812Y20888D01*
X5664Y21246D01*
X5900Y21600D01*
X5900D01*
Y23267D01*
X10000D01*
X10663Y23399D01*
X11225Y23774D01*
X11478Y24027D01*
X11560Y23993D01*
X12500Y23869D01*
X13440Y23993D01*
X14315Y24355D01*
X15067Y24933D01*
X15645Y25684D01*
X16007Y26560D01*
X16131Y27500D01*
X16007Y28440D01*
X15645Y29316D01*
X15298Y29767D01*
X15545Y30267D01*
X20028D01*
X20195Y29840D01*
D02*
G37*
G36*
X54600Y131450D02*
X62563D01*
Y126500D01*
X62710Y125759D01*
X63130Y125130D01*
X74063Y114198D01*
Y110391D01*
X73614Y110170D01*
X73471Y110280D01*
X72279Y110774D01*
X71000Y110942D01*
X69721Y110774D01*
X68529Y110280D01*
X67505Y109495D01*
X66720Y108471D01*
X66260Y107361D01*
X66000Y107317D01*
X65740Y107361D01*
X65280Y108471D01*
X64495Y109495D01*
X63471Y110280D01*
X62279Y110774D01*
X61000Y110942D01*
X59721Y110774D01*
X59060Y110500D01*
X57733D01*
Y111000D01*
X57601Y111663D01*
X57226Y112226D01*
X56226Y113226D01*
X55663Y113601D01*
X55000Y113733D01*
X47000D01*
X46337Y113601D01*
X45774Y113226D01*
X43274Y110726D01*
X43196Y110608D01*
X42820Y110533D01*
X42084Y110680D01*
X40714D01*
Y108757D01*
X40214D01*
Y108529D01*
X38344D01*
X37452Y108351D01*
X37311Y108257D01*
X36521D01*
X36568Y108021D01*
X36691Y107837D01*
X36191Y107090D01*
X36013Y106198D01*
X36191Y105306D01*
X36450Y104918D01*
X36191Y104531D01*
X36013Y103639D01*
X36191Y102747D01*
X36450Y102359D01*
X36191Y101971D01*
X36013Y101080D01*
X36191Y100188D01*
X36450Y99800D01*
X36191Y99413D01*
X36013Y98521D01*
X36191Y97629D01*
X36450Y97241D01*
X36191Y96854D01*
X36013Y95962D01*
X36191Y95070D01*
X36450Y94682D01*
X36191Y94294D01*
X36013Y93402D01*
X36191Y92510D01*
X36458Y92110D01*
Y91343D01*
X37311D01*
X37452Y91249D01*
X38344Y91072D01*
X40214D01*
Y90843D01*
X40714D01*
Y88958D01*
X41248D01*
X41582Y88458D01*
X41467Y88179D01*
X41378Y87500D01*
X41467Y86821D01*
X41579Y86550D01*
X41228Y86093D01*
X41000Y86122D01*
X40321Y86033D01*
X39689Y85771D01*
X39146Y85354D01*
X38729Y84811D01*
X38467Y84179D01*
X38378Y83500D01*
X38467Y82821D01*
X38729Y82189D01*
X39146Y81646D01*
X39689Y81229D01*
X40321Y80967D01*
X41000Y80878D01*
X41267Y80431D01*
Y53718D01*
X32774Y45226D01*
X32399Y44663D01*
X32267Y44000D01*
Y40890D01*
X31805Y40699D01*
X29233Y43270D01*
Y47500D01*
X29174Y47797D01*
X29101Y48163D01*
X29101Y48163D01*
X29101Y48163D01*
X28875Y48503D01*
X28726Y48726D01*
X28726Y48726D01*
X28726Y48726D01*
X26886Y50566D01*
X26886Y50566D01*
X26886Y50566D01*
X26570Y50776D01*
X26323Y50941D01*
X26323Y50941D01*
X26323Y50942D01*
X26031Y51000D01*
X25660Y51073D01*
X25660Y51073D01*
X25660Y51073D01*
X23583D01*
Y52118D01*
X17903D01*
Y52709D01*
X18271Y53189D01*
X18533Y53821D01*
X18622Y54500D01*
X18533Y55179D01*
X18271Y55811D01*
X17854Y56354D01*
X17311Y56771D01*
X16679Y57033D01*
X16000Y57122D01*
X15321Y57033D01*
X14689Y56771D01*
X14146Y56354D01*
X13916Y56055D01*
X345D01*
Y56306D01*
X-325D01*
Y58938D01*
X44Y59101D01*
X175Y59123D01*
X689Y58729D01*
X1321Y58467D01*
X2000Y58378D01*
X2679Y58467D01*
X3311Y58729D01*
X3854Y59146D01*
X3908Y59216D01*
X5775D01*
X5801Y59086D01*
X6328Y58297D01*
X7117Y57770D01*
X8047Y57585D01*
X13953D01*
X14883Y57770D01*
X15672Y58297D01*
X16199Y59086D01*
X16225Y59216D01*
X21917D01*
X21943Y59086D01*
X22470Y58297D01*
X23259Y57770D01*
X24189Y57585D01*
X30095D01*
X31025Y57770D01*
X31813Y58297D01*
X32340Y59086D01*
X32526Y60016D01*
Y61984D01*
X32340Y62915D01*
X31813Y63703D01*
X31165Y64137D01*
X31103Y64590D01*
X31130Y64715D01*
X31383Y64884D01*
X31822Y65541D01*
X31976Y66315D01*
Y66799D01*
X22024D01*
Y66315D01*
X22178Y65541D01*
X22617Y64884D01*
X22977Y64643D01*
Y64042D01*
X22470Y63703D01*
X21943Y62915D01*
X21917Y62784D01*
X16225D01*
X16199Y62915D01*
X15672Y63703D01*
X15094Y64090D01*
X15057Y64663D01*
X15059Y64668D01*
X15383Y64884D01*
X15822Y65541D01*
X15976Y66315D01*
Y66799D01*
X6024D01*
Y66315D01*
X6178Y65541D01*
X6617Y64884D01*
X6941Y64668D01*
X6943Y64663D01*
X6906Y64090D01*
X6328Y63703D01*
X5801Y62915D01*
X5775Y62784D01*
X3908D01*
X3854Y62854D01*
X3311Y63271D01*
X2679Y63533D01*
X2000Y63622D01*
X1321Y63533D01*
X689Y63271D01*
X175Y62877D01*
X44Y62899D01*
X-325Y63062D01*
Y64986D01*
X-3187D01*
Y60443D01*
X-4187D01*
Y64986D01*
X-7050D01*
Y63862D01*
X-7256D01*
Y62780D01*
X-9224D01*
Y63862D01*
X-10905D01*
X-11036Y64177D01*
X-11480Y64756D01*
X-12059Y65201D01*
X-12733Y65480D01*
X-13457Y65575D01*
X-14236D01*
Y62780D01*
X-15236D01*
Y65575D01*
X-16016D01*
X-16739Y65480D01*
X-17413Y65201D01*
X-17992Y64756D01*
X-18437Y64177D01*
X-18567Y63862D01*
X-20307D01*
Y72733D01*
X-19807Y72903D01*
X-19195Y72105D01*
X-18171Y71320D01*
X-16979Y70826D01*
X-15700Y70658D01*
X-14421Y70826D01*
X-13229Y71320D01*
X-12205Y72105D01*
X-12035Y72327D01*
X9000D01*
X9692Y72418D01*
X10336Y72685D01*
X10890Y73110D01*
X12890Y75110D01*
X13315Y75664D01*
X13582Y76308D01*
X13673Y77000D01*
X13582Y77692D01*
X13315Y78336D01*
X13192Y78496D01*
Y84216D01*
X13692Y84654D01*
X13900Y84627D01*
X16586D01*
X16954Y84381D01*
X17500Y84273D01*
X17966D01*
Y80525D01*
X24113D01*
Y80925D01*
X25461D01*
Y83500D01*
X25961D01*
Y84000D01*
X28634D01*
Y86075D01*
X26637D01*
X26484Y86203D01*
X26310Y86575D01*
X26326Y86606D01*
X26330Y86674D01*
X26354Y86738D01*
X26348Y86950D01*
X26362Y87161D01*
X26317Y87500D01*
X26358Y87806D01*
X26476Y88091D01*
X26664Y88336D01*
X26678Y88347D01*
X26715Y88390D01*
X26764Y88419D01*
X26898Y88598D01*
X27045Y88766D01*
X27063Y88820D01*
X27097Y88866D01*
X27152Y89082D01*
X27224Y89293D01*
X27220Y89350D01*
X27234Y89405D01*
X27264Y89987D01*
X27259Y90025D01*
X27266Y90061D01*
X27219Y90299D01*
X27184Y90539D01*
X27165Y90571D01*
X27158Y90608D01*
X27023Y90809D01*
X26899Y91017D01*
X26869Y91040D01*
X26848Y91071D01*
X26009Y91909D01*
X25546Y92219D01*
X25000Y92327D01*
X25000Y92327D01*
X24900D01*
X24848Y92317D01*
X24795Y92324D01*
X21313Y92066D01*
X21018Y92497D01*
X21016Y92545D01*
X21187Y93402D01*
X21009Y94294D01*
X20750Y94682D01*
X21009Y95070D01*
X21187Y95962D01*
X21009Y96854D01*
X20750Y97241D01*
X21009Y97629D01*
X21187Y98521D01*
X21009Y99413D01*
X20750Y99800D01*
X21009Y100188D01*
X21187Y101080D01*
X21009Y101971D01*
X20750Y102359D01*
X21009Y102747D01*
X21187Y103639D01*
X21009Y104531D01*
X20750Y104918D01*
X21009Y105306D01*
X21187Y106198D01*
X21009Y107090D01*
X20750Y107477D01*
X21009Y107865D01*
X21187Y108757D01*
X21009Y109649D01*
X20504Y110405D01*
X19756Y110905D01*
X19750Y110938D01*
X19784Y111413D01*
X20549Y111513D01*
X21619Y111957D01*
X22538Y112662D01*
X23243Y113581D01*
X23687Y114651D01*
X23838Y115800D01*
Y123350D01*
X28550D01*
Y127643D01*
X28888Y127688D01*
X29715Y128030D01*
X30425Y128575D01*
X30970Y129285D01*
X31313Y130112D01*
X31429Y131000D01*
X31313Y131888D01*
X31203Y132151D01*
X31481Y132566D01*
X54600D01*
Y131450D01*
D02*
G37*
G36*
X-11504Y5353D02*
X-12094Y3930D01*
X-12560Y1989D01*
X-12717Y0D01*
X-12560Y-1989D01*
X-12094Y-3930D01*
X-11330Y-5773D01*
X-10830Y-6589D01*
X-11075Y-7025D01*
X-15069D01*
Y-7583D01*
X-15569Y-7735D01*
X-15636Y-7636D01*
X-16359Y-7152D01*
X-17213Y-6982D01*
X-18787D01*
X-19641Y-7152D01*
X-19866Y-7302D01*
X-20307Y-7067D01*
Y4965D01*
X-19920Y5282D01*
X-19844Y5267D01*
X-13000D01*
X-12337Y5399D01*
X-11908Y5685D01*
X-11504Y5353D01*
D02*
G37*
G36*
X82025Y22096D02*
Y17887D01*
X82425D01*
Y16539D01*
X85000D01*
Y16039D01*
X85500D01*
Y13366D01*
X89762D01*
X89953Y12904D01*
X89282Y12233D01*
X78338D01*
X78147Y12695D01*
X78226Y12774D01*
X78601Y13337D01*
X78733Y14000D01*
Y18908D01*
X79179Y18967D01*
X79811Y19229D01*
X80354Y19646D01*
X80771Y20189D01*
X81033Y20821D01*
X81122Y21500D01*
X81063Y21955D01*
X81330Y22344D01*
X81536Y22412D01*
X82025Y22096D01*
D02*
G37*
G36*
X1443Y98125D02*
X-2879D01*
X-3243Y98454D01*
Y102300D01*
X-6212D01*
Y103300D01*
X-3243D01*
Y105827D01*
X1443D01*
Y98125D01*
D02*
G37*
G36*
X-7050Y56306D02*
X-9345D01*
Y51931D01*
Y49372D01*
Y46813D01*
Y44254D01*
X-8945D01*
Y44253D01*
X-55D01*
Y44254D01*
X345D01*
Y44596D01*
X845Y44632D01*
X2216Y43261D01*
Y37000D01*
X2352Y36317D01*
X2738Y35738D01*
X5238Y33238D01*
X5238Y33238D01*
X5817Y32851D01*
X6500Y32716D01*
X6500Y32716D01*
X6611D01*
X6803Y32254D01*
X5782Y31233D01*
X-18500D01*
X-19163Y31101D01*
X-19726Y30726D01*
X-19845Y30606D01*
X-20307Y30798D01*
Y33838D01*
X-18443D01*
X-18437Y33823D01*
X-17992Y33244D01*
X-17413Y32799D01*
X-16739Y32520D01*
X-16016Y32425D01*
X-15236D01*
Y35220D01*
X-14236D01*
Y32425D01*
X-13457D01*
X-12733Y32520D01*
X-12059Y32799D01*
X-11480Y33244D01*
X-11036Y33823D01*
X-11029Y33838D01*
X-9224D01*
Y35221D01*
X-7256D01*
Y33838D01*
X-7162D01*
Y33057D01*
X-4300D01*
Y37600D01*
X-3800D01*
Y38100D01*
X-438D01*
Y38657D01*
X-3713D01*
Y39657D01*
X-438D01*
Y42094D01*
X-55D01*
Y43382D01*
X-8945D01*
Y42094D01*
X-7162D01*
Y40562D01*
X-12900D01*
Y37200D01*
X-13900D01*
Y40562D01*
X-20307D01*
Y42095D01*
X-16811D01*
Y45457D01*
Y48819D01*
X-20307D01*
Y49969D01*
X-16811D01*
Y53331D01*
X-16311D01*
Y53831D01*
X-10587D01*
Y56693D01*
X-10587Y56693D01*
X-10587D01*
X-10587Y56693D01*
X-10453Y57138D01*
X-7050D01*
Y56306D01*
D02*
G37*
G36*
X4492Y87096D02*
X4354Y86847D01*
X3543D01*
Y77673D01*
X-677D01*
X-1143Y77754D01*
X-1143Y78173D01*
Y81600D01*
X-7080D01*
Y78173D01*
X-7080Y77754D01*
X-7547Y77673D01*
X-11255D01*
X-11420Y78071D01*
X-12205Y79095D01*
X-13229Y79880D01*
X-14339Y80340D01*
X-14383Y80600D01*
X-14339Y80860D01*
X-13229Y81320D01*
X-12205Y82105D01*
X-11420Y83129D01*
X-10926Y84321D01*
X-10758Y85600D01*
X-10828Y86135D01*
X-9388Y87575D01*
X4186D01*
X4492Y87096D01*
D02*
G37*
G36*
X97688Y70712D02*
X97467Y70179D01*
X97386Y69561D01*
X97211Y69447D01*
X96894Y69346D01*
X88605Y77635D01*
X88533Y78179D01*
X88271Y78811D01*
X87854Y79354D01*
X87311Y79771D01*
X86679Y80033D01*
X86000Y80122D01*
X85321Y80033D01*
X84689Y79771D01*
X84146Y79354D01*
X83729Y78811D01*
X83467Y78179D01*
X83378Y77500D01*
X83467Y76821D01*
X83729Y76189D01*
X84146Y75646D01*
X84689Y75229D01*
X85321Y74967D01*
X85865Y74895D01*
X97063Y63698D01*
Y54900D01*
X95600D01*
Y48100D01*
X96750D01*
Y42850D01*
X99810D01*
X100798Y41862D01*
X100607Y41400D01*
X95600D01*
Y34600D01*
X99805D01*
X100702Y33702D01*
X101298Y33304D01*
X102000Y33165D01*
X102500D01*
Y32000D01*
X105000D01*
Y31500D01*
X105500D01*
Y28000D01*
X106180D01*
X106229Y27500D01*
X105904Y27435D01*
X105276Y27016D01*
X103630Y25370D01*
X103210Y24741D01*
X103063Y24000D01*
Y20400D01*
X102100D01*
Y12600D01*
X107900D01*
Y20400D01*
X106937D01*
Y23198D01*
X107448Y23708D01*
X109923D01*
Y14372D01*
X119416D01*
Y32920D01*
X119856Y33065D01*
X122200D01*
X122902Y33204D01*
X123498Y33602D01*
X124798Y34902D01*
X125196Y35498D01*
X125216Y35600D01*
X127065D01*
Y36785D01*
X127150Y37250D01*
X129400D01*
Y40000D01*
X129900D01*
Y40500D01*
X132824D01*
X132900Y40563D01*
X133198D01*
X133350Y40410D01*
Y36850D01*
X133645D01*
X134000Y36500D01*
Y33331D01*
X133786Y32920D01*
X124687D01*
Y32613D01*
X124547Y32486D01*
X124187Y32323D01*
X123679Y32533D01*
X123000Y32622D01*
X122321Y32533D01*
X121689Y32271D01*
X121146Y31854D01*
X120729Y31311D01*
X120467Y30679D01*
X120378Y30000D01*
X120467Y29321D01*
X120729Y28689D01*
X121146Y28146D01*
X121335Y28000D01*
Y27500D01*
X121146Y27354D01*
X120729Y26811D01*
X120467Y26179D01*
X120378Y25500D01*
X120467Y24821D01*
X120729Y24189D01*
X121146Y23646D01*
X121335Y23500D01*
Y23000D01*
X121146Y22854D01*
X120729Y22311D01*
X120467Y21679D01*
X120378Y21000D01*
X120467Y20321D01*
X120729Y19689D01*
X121146Y19146D01*
X121689Y18729D01*
X122321Y18467D01*
X123000Y18378D01*
X123679Y18467D01*
X124187Y18677D01*
X124547Y18514D01*
X124687Y18387D01*
Y14372D01*
X133786D01*
Y19900D01*
X141173D01*
Y-11687D01*
X132554Y-20307D01*
X108711D01*
X108372Y-19807D01*
X108476Y-19283D01*
Y-18799D01*
X98524D01*
Y-19283D01*
X98628Y-19807D01*
X98289Y-20307D01*
X92711D01*
X92372Y-19807D01*
X92476Y-19283D01*
Y-18799D01*
X82524D01*
Y-19283D01*
X82628Y-19807D01*
X82289Y-20307D01*
X74211D01*
X73872Y-19807D01*
X73976Y-19283D01*
Y-18799D01*
X64024D01*
Y-19283D01*
X64128Y-19807D01*
X63789Y-20307D01*
X58211D01*
X57872Y-19807D01*
X57976Y-19283D01*
Y-18799D01*
X48024D01*
Y-19283D01*
X48128Y-19807D01*
X47789Y-20307D01*
X39711D01*
X39372Y-19807D01*
X39476Y-19283D01*
Y-18799D01*
X34500D01*
Y-17799D01*
X39476D01*
Y-17315D01*
X39753Y-16977D01*
X42756D01*
X43419Y-16845D01*
X43982Y-16470D01*
X47048Y-13403D01*
X47591Y-13568D01*
X47660Y-13915D01*
X48187Y-14703D01*
X48836Y-15137D01*
X48897Y-15590D01*
X48870Y-15715D01*
X48617Y-15884D01*
X48178Y-16541D01*
X48024Y-17315D01*
Y-17799D01*
X57976D01*
Y-17315D01*
X57822Y-16541D01*
X57383Y-15884D01*
X57023Y-15643D01*
Y-15042D01*
X57530Y-14703D01*
X58057Y-13915D01*
X58193Y-13233D01*
X63666D01*
X63801Y-13915D01*
X64328Y-14703D01*
X64906Y-15089D01*
X64943Y-15663D01*
X64941Y-15668D01*
X64617Y-15884D01*
X64178Y-16541D01*
X64024Y-17315D01*
Y-17799D01*
X73976D01*
Y-17315D01*
X73822Y-16541D01*
X73383Y-15884D01*
X73059Y-15668D01*
X73057Y-15663D01*
X73094Y-15089D01*
X73672Y-14703D01*
X74199Y-13915D01*
X74384Y-12984D01*
Y-11016D01*
X74199Y-10086D01*
X73672Y-9297D01*
X73190Y-8975D01*
X73342Y-8475D01*
X76613D01*
Y-8075D01*
X77961D01*
Y-5500D01*
Y-2925D01*
X77065D01*
Y-38D01*
Y3925D01*
X77961D01*
Y6500D01*
X78461D01*
Y7000D01*
X81134D01*
Y7567D01*
X83482D01*
X84774Y6274D01*
X85337Y5899D01*
X86000Y5767D01*
X99782D01*
X100324Y5224D01*
X100117Y4724D01*
X95850D01*
Y772D01*
Y-3181D01*
X100767D01*
Y-8585D01*
X100547D01*
X99617Y-8770D01*
X98828Y-9297D01*
X98301Y-10086D01*
X98265Y-10267D01*
X92593D01*
X92557Y-10086D01*
X92030Y-9297D01*
X91241Y-8770D01*
X90311Y-8585D01*
X84406D01*
X83475Y-8770D01*
X82687Y-9297D01*
X82160Y-10086D01*
X81975Y-11016D01*
Y-12984D01*
X82160Y-13915D01*
X82687Y-14703D01*
X83336Y-15137D01*
X83397Y-15590D01*
X83370Y-15715D01*
X83117Y-15884D01*
X82678Y-16541D01*
X82524Y-17315D01*
Y-17799D01*
X92476D01*
Y-17315D01*
X92322Y-16541D01*
X91883Y-15884D01*
X91523Y-15643D01*
Y-15042D01*
X92030Y-14703D01*
X92557Y-13915D01*
X92593Y-13733D01*
X98265D01*
X98301Y-13915D01*
X98828Y-14703D01*
X99406Y-15089D01*
X99443Y-15663D01*
X99441Y-15668D01*
X99117Y-15884D01*
X98678Y-16541D01*
X98524Y-17315D01*
Y-17799D01*
X108476D01*
Y-17315D01*
X108322Y-16541D01*
X107883Y-15884D01*
X107559Y-15668D01*
X107557Y-15663D01*
X107594Y-15089D01*
X108172Y-14703D01*
X108699Y-13915D01*
X108884Y-12984D01*
Y-11016D01*
X108699Y-10086D01*
X108172Y-9297D01*
X107383Y-8770D01*
X106453Y-8585D01*
X104233D01*
Y5500D01*
X104101Y6163D01*
X103726Y6726D01*
X101726Y8726D01*
X101163Y9101D01*
X100500Y9233D01*
X91892D01*
X91685Y9733D01*
X94726Y12774D01*
X95101Y13337D01*
X95233Y14000D01*
Y24500D01*
X95101Y25163D01*
X94726Y25726D01*
X90733Y29718D01*
Y33758D01*
X90601Y34421D01*
X90226Y34984D01*
X76945Y48264D01*
X77271Y48689D01*
X77533Y49321D01*
X77622Y50000D01*
X77533Y50679D01*
X77271Y51311D01*
X76854Y51854D01*
X76311Y52271D01*
X75679Y52533D01*
X75000Y52622D01*
X74321Y52533D01*
X73689Y52271D01*
X73146Y51854D01*
X72807Y51413D01*
X72240Y51272D01*
X71187Y52326D01*
X70624Y52701D01*
X69961Y52833D01*
X57118D01*
X55733Y54218D01*
Y82398D01*
X55850Y82850D01*
X62150D01*
X62150Y82850D01*
X62450D01*
Y82850D01*
X62650Y82850D01*
X68750D01*
Y83254D01*
X69166Y83531D01*
X69321Y83467D01*
X70000Y83378D01*
X70679Y83467D01*
X71311Y83729D01*
X71414Y83808D01*
X84592D01*
X97688Y70712D01*
D02*
G37*
G36*
X14595Y45165D02*
X15530Y44230D01*
X15665Y44140D01*
Y39082D01*
X23583D01*
Y40126D01*
X25422D01*
X29267Y36282D01*
Y30768D01*
X29399Y30105D01*
X29774Y29543D01*
X33779Y25538D01*
X33754Y24892D01*
X33598Y24756D01*
X33201Y24835D01*
X29869D01*
X29854Y24854D01*
X29311Y25271D01*
X28679Y25533D01*
X28000Y25622D01*
X27733Y25856D01*
Y32500D01*
X27601Y33163D01*
X27226Y33726D01*
X25226Y35726D01*
X24663Y36101D01*
X24000Y36233D01*
X19534D01*
Y38171D01*
X8466D01*
Y36284D01*
X7239D01*
X5784Y37739D01*
Y38918D01*
X6216Y39082D01*
X6217Y39082D01*
Y39082D01*
X6217Y39082D01*
X14135D01*
Y44638D01*
X13735D01*
Y45622D01*
X13812Y45652D01*
X14235Y45705D01*
X14595Y45165D01*
D02*
G37*
G36*
X25839Y90061D02*
X25809Y89479D01*
X25646Y89354D01*
X25229Y88811D01*
X24967Y88179D01*
X24878Y87500D01*
X24947Y86975D01*
X24633Y86475D01*
X22887D01*
Y85700D01*
X17500D01*
Y88500D01*
X19500Y90500D01*
X24900Y90900D01*
X25000D01*
X25839Y90061D01*
D02*
G37*
G36*
X53114Y365D02*
X53658Y1D01*
X53770Y-21D01*
X55554Y-1805D01*
X55363Y-2267D01*
X54000D01*
X53337Y-2399D01*
X52774Y-2774D01*
X45862Y-9687D01*
X45438Y-9403D01*
X45534Y-9172D01*
X45637Y-8389D01*
X45534Y-7605D01*
X45232Y-6876D01*
X44751Y-6249D01*
X44345Y-5937D01*
Y-5218D01*
X49663Y100D01*
X49750Y118D01*
X50376Y536D01*
X51659Y1820D01*
X53114Y365D01*
D02*
G37*
G36*
X128185Y140711D02*
X127418Y139944D01*
X127213Y139787D01*
X121901Y134475D01*
X121709Y134603D01*
X121367Y134671D01*
X121046Y134735D01*
X120890Y134704D01*
X120393Y134657D01*
X120054Y134630D01*
X118111Y134163D01*
X116264Y133398D01*
X114559Y132354D01*
X113039Y131055D01*
X111741Y129535D01*
X110697Y127831D01*
X109932Y125984D01*
X109465Y124040D01*
X109308Y122047D01*
X109465Y120054D01*
X109932Y118111D01*
X110697Y116264D01*
X111741Y114559D01*
X113039Y113039D01*
X114559Y111741D01*
X116264Y110697D01*
X118111Y109932D01*
X120054Y109465D01*
X122047Y109308D01*
X124040Y109465D01*
X125984Y109932D01*
X127831Y110697D01*
X129535Y111741D01*
X131055Y113039D01*
X132354Y114559D01*
X133398Y116264D01*
X134163Y118111D01*
X134630Y120054D01*
X134787Y122047D01*
X134630Y124040D01*
X134163Y125984D01*
X133398Y127831D01*
X133218Y128126D01*
X133613Y128437D01*
X133672Y128379D01*
X136146Y130853D01*
X136500Y130500D01*
X136854Y130853D01*
X139328Y128379D01*
X140711Y129762D01*
X141173Y129570D01*
Y43931D01*
X140711Y43740D01*
X139650Y44801D01*
Y48650D01*
X133350D01*
X133350Y48650D01*
X133050D01*
Y48650D01*
X132850Y48650D01*
X126750D01*
Y47937D01*
X126086D01*
X125602Y48261D01*
X124665Y48447D01*
X122335D01*
X121398Y48261D01*
X120604Y47730D01*
X120074Y46936D01*
X119888Y46000D01*
X120074Y45064D01*
X120604Y44270D01*
X120994Y44010D01*
Y43510D01*
X120893Y43442D01*
X120451Y42780D01*
X120395Y42500D01*
X123500D01*
Y41500D01*
X120395D01*
X120451Y41220D01*
X120664Y40900D01*
X120397Y40400D01*
X119935D01*
Y36735D01*
X116769D01*
X116754Y36754D01*
X116211Y37171D01*
X115771Y37353D01*
X115900Y38000D01*
X115714Y38936D01*
X115212Y39687D01*
X115154Y39849D01*
Y40151D01*
X115212Y40312D01*
X115714Y41064D01*
X115900Y42000D01*
X115714Y42936D01*
X115212Y43687D01*
X115154Y43849D01*
Y44151D01*
X115212Y44313D01*
X115714Y45064D01*
X115900Y46000D01*
X115714Y46936D01*
X115183Y47730D01*
X114389Y48261D01*
X113453Y48447D01*
X111122D01*
X110186Y48261D01*
X110150Y48237D01*
X109650Y48504D01*
Y49150D01*
X109000D01*
Y51000D01*
X106000D01*
Y51500D01*
X105500D01*
Y54500D01*
X104334D01*
X104165Y55000D01*
X104354Y55146D01*
X104771Y55689D01*
X105033Y56321D01*
X105122Y57000D01*
X105033Y57679D01*
X104771Y58311D01*
X104692Y58414D01*
Y66900D01*
X104525Y67739D01*
X104050Y68450D01*
X102565Y69935D01*
X102533Y70179D01*
X102271Y70811D01*
X102192Y70914D01*
Y71500D01*
X102025Y72339D01*
X101550Y73050D01*
X87050Y87550D01*
X86339Y88025D01*
X85500Y88192D01*
X71414D01*
X71311Y88271D01*
X70679Y88533D01*
X70000Y88622D01*
X69321Y88533D01*
X69166Y88469D01*
X68750Y88747D01*
Y89150D01*
X65550D01*
X64692Y90008D01*
Y90607D01*
X65141Y90828D01*
X65507Y90547D01*
X66468Y90149D01*
X67000Y90079D01*
Y94000D01*
Y97921D01*
X66468Y97851D01*
X65507Y97453D01*
X65141Y97172D01*
X64692Y97393D01*
Y99000D01*
X64525Y99839D01*
X64050Y100550D01*
X63436Y101164D01*
X63463Y101590D01*
X63533Y101767D01*
X64495Y102505D01*
X65280Y103529D01*
X65740Y104639D01*
X66000Y104683D01*
X66260Y104639D01*
X66720Y103529D01*
X67505Y102505D01*
X68529Y101720D01*
X69721Y101226D01*
X71000Y101058D01*
X72279Y101226D01*
X73471Y101720D01*
X73614Y101830D01*
X74063Y101609D01*
Y96671D01*
X73698Y96195D01*
X73259Y95136D01*
X73110Y94000D01*
X73259Y92864D01*
X73698Y91805D01*
X74396Y90896D01*
X75305Y90198D01*
X76364Y89759D01*
X77500Y89610D01*
X78636Y89759D01*
X79695Y90198D01*
X80604Y90896D01*
X81302Y91805D01*
X81741Y92864D01*
X81890Y94000D01*
X81741Y95136D01*
X81302Y96195D01*
X80604Y97104D01*
X79695Y97802D01*
X78636Y98241D01*
X77937Y98333D01*
Y101609D01*
X78386Y101830D01*
X78529Y101720D01*
X79721Y101226D01*
X81000Y101058D01*
X82279Y101226D01*
X83471Y101720D01*
X84495Y102505D01*
X85280Y103529D01*
X85774Y104721D01*
X85942Y106000D01*
X85774Y107279D01*
X85280Y108471D01*
X84495Y109495D01*
X83471Y110280D01*
X82279Y110774D01*
X81000Y110942D01*
X79721Y110774D01*
X78529Y110280D01*
X78386Y110170D01*
X77937Y110391D01*
Y115000D01*
X77790Y115741D01*
X77370Y116370D01*
X67205Y126535D01*
X67369Y127077D01*
X67539Y127111D01*
X68075Y126575D01*
X68785Y126030D01*
X69612Y125688D01*
X70500Y125571D01*
X78936D01*
X79255Y125155D01*
X80206Y124425D01*
X81312Y123967D01*
X82500Y123811D01*
X83688Y123967D01*
X84794Y124425D01*
X85745Y125155D01*
X86474Y126105D01*
X86932Y127212D01*
X87089Y128400D01*
Y129600D01*
X86932Y130788D01*
X86474Y131895D01*
X86434Y131948D01*
Y135500D01*
X86372Y135967D01*
X86442Y136500D01*
X86274Y137779D01*
X85780Y138971D01*
X84995Y139995D01*
X84110Y140673D01*
X84280Y141173D01*
X89500D01*
Y137000D01*
X97500D01*
Y141173D01*
X127994D01*
X128185Y140711D01*
D02*
G37*
G36*
X67689Y-5771D02*
X68321Y-6033D01*
X69000Y-6122D01*
X69679Y-6033D01*
X69966Y-5914D01*
X70466Y-6248D01*
Y-8475D01*
X70012Y-8585D01*
X66047D01*
X65117Y-8770D01*
X64328Y-9297D01*
X64014Y-9767D01*
X61733D01*
Y-8447D01*
X61854Y-8354D01*
X62271Y-7811D01*
X62533Y-7179D01*
X62622Y-6500D01*
X62587Y-6233D01*
X63016Y-5733D01*
X67639D01*
X67689Y-5771D01*
D02*
G37*
G36*
X33774Y-2226D02*
X34337Y-2601D01*
X35000Y-2733D01*
X38489D01*
X38681Y-3195D01*
X33291Y-8585D01*
X31547D01*
X30617Y-8770D01*
X29828Y-9297D01*
X29301Y-10086D01*
X29265Y-10267D01*
X23593D01*
X23557Y-10086D01*
X23030Y-9297D01*
X22242Y-8770D01*
X21311Y-8585D01*
X15406D01*
X14475Y-8770D01*
X13687Y-9297D01*
X13160Y-10086D01*
X12975Y-11016D01*
Y-12984D01*
X13002Y-13124D01*
X12685Y-13511D01*
X12256D01*
X12256Y-13511D01*
X11593Y-13643D01*
X11030Y-14018D01*
X6469Y-18580D01*
X5968Y-18373D01*
Y-18000D01*
X3000D01*
Y-17500D01*
X2500D01*
Y-14532D01*
X32D01*
X32Y-14532D01*
X-453Y-14495D01*
X-1121Y-14218D01*
X-2000Y-14102D01*
X-2879Y-14218D01*
X-3699Y-14558D01*
X-4129Y-14887D01*
X-4500Y-15054D01*
X-4871Y-14887D01*
X-5301Y-14558D01*
X-6121Y-14218D01*
X-7000Y-14102D01*
X-7879Y-14218D01*
X-8699Y-14558D01*
X-9402Y-15098D01*
X-9942Y-15801D01*
X-10282Y-16621D01*
X-10391Y-17451D01*
X-10641Y-17620D01*
X-10834Y-17715D01*
X-11787Y-16762D01*
X-11739Y-16521D01*
X-11622Y-16220D01*
X-11146Y-15854D01*
X-10729Y-15311D01*
X-10467Y-14679D01*
X-10378Y-14000D01*
X-10447Y-13475D01*
X-10133Y-12975D01*
X-9120D01*
Y-9540D01*
X-8620Y-9310D01*
X-7474Y-10288D01*
X-5773Y-11330D01*
X-3930Y-12094D01*
X-1989Y-12560D01*
X0Y-12717D01*
X1989Y-12560D01*
X3930Y-12094D01*
X5773Y-11330D01*
X7474Y-10288D01*
X8992Y-8992D01*
X10288Y-7474D01*
X11330Y-5773D01*
X12094Y-3930D01*
X12560Y-1989D01*
X12717Y0D01*
X12560Y1989D01*
X12094Y3930D01*
X12021Y4107D01*
X12418Y4454D01*
X13000Y4378D01*
X13679Y4467D01*
X14311Y4729D01*
X14854Y5146D01*
X14947Y5267D01*
X26282D01*
X33774Y-2226D01*
D02*
G37*
%LPC*%
G36*
X122047Y12717D02*
X120058Y12560D01*
X118118Y12094D01*
X116274Y11330D01*
X114573Y10288D01*
X113056Y8992D01*
X111760Y7474D01*
X110717Y5773D01*
X109953Y3930D01*
X109487Y1989D01*
X109331Y0D01*
X109487Y-1989D01*
X109953Y-3930D01*
X110717Y-5773D01*
X111760Y-7474D01*
X113056Y-8992D01*
X114573Y-10288D01*
X116274Y-11330D01*
X118118Y-12094D01*
X120058Y-12560D01*
X122047Y-12717D01*
X124037Y-12560D01*
X125977Y-12094D01*
X127821Y-11330D01*
X129522Y-10288D01*
X131039Y-8992D01*
X132335Y-7474D01*
X133378Y-5773D01*
X134142Y-3930D01*
X134607Y-1989D01*
X134764Y0D01*
X134607Y1989D01*
X134142Y3930D01*
X133378Y5773D01*
X132335Y7474D01*
X131039Y8992D01*
X129522Y10288D01*
X127821Y11330D01*
X125977Y12094D01*
X124037Y12560D01*
X122047Y12717D01*
D02*
G37*
G36*
X129500Y60000D02*
X125457D01*
Y56350D01*
X129500D01*
Y60000D01*
D02*
G37*
G36*
X109000Y54500D02*
X106500D01*
Y52000D01*
X109000D01*
Y54500D01*
D02*
G37*
G36*
X-10587Y52831D02*
X-15811D01*
Y49969D01*
X-10587D01*
Y52831D01*
D02*
G37*
G36*
X134543Y64650D02*
X130500D01*
Y61000D01*
X134543D01*
Y64650D01*
D02*
G37*
G36*
X130394Y74931D02*
X129606D01*
X128419Y74775D01*
X127312Y74317D01*
X126362Y73587D01*
X125632Y72637D01*
X125174Y71530D01*
X125017Y70342D01*
X125174Y69155D01*
X125632Y68048D01*
X126362Y67098D01*
X127312Y66368D01*
X128419Y65910D01*
X129606Y65754D01*
X130394D01*
X131581Y65910D01*
X132688Y66368D01*
X133639Y67098D01*
X134368Y68048D01*
X134826Y69155D01*
X134983Y70342D01*
X134826Y71530D01*
X134368Y72637D01*
X133639Y73587D01*
X132688Y74317D01*
X131581Y74775D01*
X130394Y74931D01*
D02*
G37*
G36*
X10500Y70307D02*
X8047D01*
X7273Y70153D01*
X6617Y69714D01*
X6178Y69058D01*
X6024Y68283D01*
Y67799D01*
X10500D01*
Y70307D01*
D02*
G37*
G36*
X134543Y60000D02*
X130500D01*
Y56350D01*
X134543D01*
Y60000D01*
D02*
G37*
G36*
X5968Y-14532D02*
X3500D01*
Y-17000D01*
X5968D01*
Y-14532D01*
D02*
G37*
G36*
X129500Y64650D02*
X125457D01*
Y61000D01*
X129500D01*
Y64650D01*
D02*
G37*
G36*
X94850Y272D02*
X89626D01*
Y-3181D01*
X94850D01*
Y272D01*
D02*
G37*
G36*
X81134Y-2925D02*
X78961D01*
Y-5000D01*
X81134D01*
Y-2925D01*
D02*
G37*
G36*
X22000Y27000D02*
X19338D01*
X19382Y26665D01*
X19705Y25886D01*
X20218Y25218D01*
X20886Y24705D01*
X21665Y24382D01*
X22000Y24338D01*
Y27000D01*
D02*
G37*
G36*
X81134Y6000D02*
X78961D01*
Y3925D01*
X81134D01*
Y6000D01*
D02*
G37*
G36*
X94850Y4724D02*
X89626D01*
Y1272D01*
X94850D01*
Y4724D01*
D02*
G37*
G36*
X84500Y15539D02*
X82425D01*
Y13366D01*
X84500D01*
Y15539D01*
D02*
G37*
G36*
X132650Y39500D02*
X130400D01*
Y37250D01*
X132650D01*
Y39500D01*
D02*
G37*
G36*
X-10587Y44957D02*
X-15811D01*
Y42095D01*
X-10587D01*
Y44957D01*
D02*
G37*
G36*
Y48819D02*
X-15811D01*
Y45957D01*
X-10587D01*
Y48819D01*
D02*
G37*
G36*
X81134Y-6000D02*
X78961D01*
Y-8075D01*
X81134D01*
Y-6000D01*
D02*
G37*
G36*
X104500Y31000D02*
X102500D01*
Y28000D01*
X104500D01*
Y31000D01*
D02*
G37*
G36*
X-438Y37100D02*
X-3300D01*
Y33057D01*
X-438D01*
Y37100D01*
D02*
G37*
G36*
X63000Y118500D02*
X59500D01*
Y114250D01*
X63000D01*
Y118500D01*
D02*
G37*
G36*
X58500Y123750D02*
X55000D01*
Y119500D01*
X58500D01*
Y123750D01*
D02*
G37*
G36*
X63000D02*
X59500D01*
Y119500D01*
X63000D01*
Y123750D01*
D02*
G37*
G36*
X58500Y118500D02*
X55000D01*
Y114250D01*
X58500D01*
Y118500D01*
D02*
G37*
G36*
X28100Y106705D02*
X21695D01*
Y100300D01*
X28100D01*
Y106705D01*
D02*
G37*
G36*
X35506D02*
X29100D01*
Y100300D01*
X35506D01*
Y106705D01*
D02*
G37*
G36*
X39714Y110680D02*
X38344D01*
X37608Y110533D01*
X36985Y110116D01*
X36568Y109493D01*
X36521Y109257D01*
X39714D01*
Y110680D01*
D02*
G37*
G36*
X44800Y126443D02*
X38050D01*
Y123693D01*
X44800D01*
Y126443D01*
D02*
G37*
G36*
Y130193D02*
X38050D01*
Y127443D01*
X44800D01*
Y130193D01*
D02*
G37*
G36*
X52550D02*
X45800D01*
Y127443D01*
X52550D01*
Y130193D01*
D02*
G37*
G36*
X97500Y136000D02*
X89500D01*
Y133750D01*
X88193D01*
Y129500D01*
X96492D01*
Y131750D01*
X97500D01*
Y136000D01*
D02*
G37*
G36*
X136500Y129793D02*
X134379Y127672D01*
X136500Y125550D01*
X138621Y127672D01*
X136500Y129793D01*
D02*
G37*
G36*
X52550Y126443D02*
X45800D01*
Y123693D01*
X52550D01*
Y126443D01*
D02*
G37*
G36*
X91843Y128500D02*
X88193D01*
Y124250D01*
X91843D01*
Y128500D01*
D02*
G37*
G36*
X96492D02*
X92843D01*
Y124250D01*
X96492D01*
Y128500D01*
D02*
G37*
G36*
X28634Y83000D02*
X26461D01*
Y80925D01*
X28634D01*
Y83000D01*
D02*
G37*
G36*
X-4612Y86446D02*
X-7080D01*
Y82600D01*
X-4612D01*
Y86446D01*
D02*
G37*
G36*
X-1143D02*
X-3612D01*
Y82600D01*
X-1143D01*
Y86446D01*
D02*
G37*
G36*
X130394Y84774D02*
X129606D01*
X128419Y84618D01*
X127312Y84159D01*
X126362Y83430D01*
X125632Y82480D01*
X125174Y81373D01*
X125017Y80185D01*
X125174Y78997D01*
X125632Y77891D01*
X126362Y76940D01*
X127312Y76211D01*
X128419Y75753D01*
X129606Y75596D01*
X130394D01*
X131581Y75753D01*
X132688Y76211D01*
X133639Y76940D01*
X134368Y77891D01*
X134826Y78997D01*
X134983Y80185D01*
X134826Y81373D01*
X134368Y82480D01*
X133639Y83430D01*
X132688Y84159D01*
X131581Y84618D01*
X130394Y84774D01*
D02*
G37*
G36*
X13953Y70307D02*
X11500D01*
Y67799D01*
X15976D01*
Y68283D01*
X15822Y69058D01*
X15383Y69714D01*
X14727Y70153D01*
X13953Y70307D01*
D02*
G37*
G36*
X26500D02*
X24047D01*
X23273Y70153D01*
X22617Y69714D01*
X22178Y69058D01*
X22024Y68283D01*
Y67799D01*
X26500D01*
Y70307D01*
D02*
G37*
G36*
X29953D02*
X27500D01*
Y67799D01*
X31976D01*
Y68283D01*
X31822Y69058D01*
X31383Y69714D01*
X30727Y70153D01*
X29953Y70307D01*
D02*
G37*
G36*
X130394Y94616D02*
X129606D01*
X128419Y94460D01*
X127312Y94002D01*
X126362Y93272D01*
X125632Y92322D01*
X125174Y91215D01*
X125017Y90028D01*
X125174Y88840D01*
X125632Y87733D01*
X126362Y86783D01*
X127312Y86054D01*
X128419Y85595D01*
X129606Y85439D01*
X130394D01*
X131581Y85595D01*
X132688Y86054D01*
X133639Y86783D01*
X134368Y87733D01*
X134826Y88840D01*
X134983Y90028D01*
X134826Y91215D01*
X134368Y92322D01*
X133639Y93272D01*
X132688Y94002D01*
X131581Y94460D01*
X130394Y94616D01*
D02*
G37*
G36*
X35506Y99300D02*
X29100D01*
Y92895D01*
X35506D01*
Y99300D01*
D02*
G37*
G36*
X68000Y97921D02*
Y94500D01*
X71421D01*
X71351Y95032D01*
X70953Y95993D01*
X70319Y96819D01*
X69493Y97453D01*
X68532Y97851D01*
X68000Y97921D01*
D02*
G37*
G36*
X130394Y104459D02*
X129606D01*
X128419Y104303D01*
X127312Y103844D01*
X126362Y103115D01*
X125632Y102164D01*
X125174Y101058D01*
X125017Y99870D01*
X125174Y98682D01*
X125632Y97576D01*
X126362Y96625D01*
X127312Y95896D01*
X128419Y95438D01*
X129606Y95281D01*
X130394D01*
X131581Y95438D01*
X132688Y95896D01*
X133639Y96625D01*
X134368Y97576D01*
X134826Y98682D01*
X134983Y99870D01*
X134826Y101058D01*
X134368Y102164D01*
X133639Y103115D01*
X132688Y103844D01*
X131581Y104303D01*
X130394Y104459D01*
D02*
G37*
G36*
X28100Y99300D02*
X21695D01*
Y92895D01*
X28100D01*
Y99300D01*
D02*
G37*
G36*
X39714Y90343D02*
X36458D01*
Y88958D01*
X39714D01*
Y90343D01*
D02*
G37*
G36*
X87500Y98390D02*
X86364Y98241D01*
X85305Y97802D01*
X84396Y97104D01*
X83698Y96195D01*
X83259Y95136D01*
X83110Y94000D01*
X83259Y92864D01*
X83698Y91805D01*
X84396Y90896D01*
X85305Y90198D01*
X86364Y89759D01*
X87500Y89610D01*
X88636Y89759D01*
X89695Y90198D01*
X90604Y90896D01*
X91302Y91805D01*
X91741Y92864D01*
X91890Y94000D01*
X91741Y95136D01*
X91302Y96195D01*
X90604Y97104D01*
X89695Y97802D01*
X88636Y98241D01*
X87500Y98390D01*
D02*
G37*
G36*
X71421Y93500D02*
X68000D01*
Y90079D01*
X68532Y90149D01*
X69493Y90547D01*
X70319Y91181D01*
X70953Y92007D01*
X71351Y92968D01*
X71421Y93500D01*
D02*
G37*
%LPD*%
D10*
X10977Y122047D02*
G03*
X10977Y122047I-10977J0D01*
G01*
X121046Y133002D02*
G03*
X129129Y130465I1002J-10954D01*
G01*
X133025Y0D02*
G03*
X133025Y0I-10977J0D01*
G01*
X10977D02*
G03*
X10977Y0I-10977J0D01*
G01*
X18500Y-18299D02*
X34500D01*
X32756Y11756D02*
X33812D01*
X-20500Y7656D02*
Y27500D01*
Y7656D02*
X-19844Y7000D01*
X2500Y25000D02*
X10000D01*
X2000D02*
X2500D01*
X14900Y20600D02*
X18000Y17500D01*
X6500Y16500D02*
X10600Y20600D01*
X14900D01*
X500Y16500D02*
X6500D01*
X24000Y34500D02*
X26000Y32500D01*
X17657Y34500D02*
X24000D01*
X16657Y33500D02*
X17657Y34500D01*
X26000Y23970D02*
Y32500D01*
X-13000Y7000D02*
X-12094Y7905D01*
X-19844Y7000D02*
X-13000D01*
X-12094Y7905D02*
Y10000D01*
X-4000Y14000D02*
X16030D01*
X-7000Y17000D02*
X-4000Y14000D01*
X-8000Y20000D02*
X-7000Y19000D01*
Y17000D02*
Y19000D01*
X-19000Y13000D02*
X-18000Y14000D01*
X26140Y41860D02*
X31000Y37000D01*
Y30768D02*
Y37000D01*
Y30768D02*
X37389Y24380D01*
X19624Y41860D02*
X26140D01*
X32500Y32052D02*
X38781Y25772D01*
X32500Y32052D02*
Y37552D01*
X27500Y42552D02*
X32500Y37552D01*
X34000Y33336D02*
X40172Y27164D01*
X34000Y33336D02*
Y44000D01*
X47000Y42000D02*
Y43128D01*
X41500Y38500D02*
X43428Y36572D01*
X44684D01*
X47132Y34123D01*
X51000Y42500D02*
Y43500D01*
X52000Y46000D02*
X56000Y42000D01*
X49872Y46000D02*
X52000D01*
X47000Y43128D02*
X49872Y46000D01*
X41500Y38500D02*
Y41500D01*
X44000Y44000D01*
X68000Y-4000D02*
X69000Y-3000D01*
X69539Y14500D02*
X74500D01*
X75000Y18000D02*
Y22500D01*
X73000Y16000D02*
X75000Y18000D01*
X70823Y16000D02*
X73000D01*
X68777Y18047D02*
X70823Y16000D01*
X75000Y12000D02*
X77000Y14000D01*
X69256Y12000D02*
X75000D01*
X65923Y15332D02*
X69256Y12000D01*
X65188Y10500D02*
X90000D01*
X69300Y9300D02*
X84200D01*
X68000Y8000D02*
X69300Y9300D01*
X63140Y12548D02*
X65188Y10500D01*
X77000Y14000D02*
Y20000D01*
X84200Y9300D02*
X86000Y7500D01*
X60000Y-11500D02*
Y-6500D01*
X12256Y-15244D02*
X42756D01*
X7000Y-20500D02*
X12256Y-15244D01*
X-10500Y-20500D02*
X7000D01*
X-15100Y-15900D02*
X-10500Y-20500D01*
X-15100Y-15900D02*
Y-12900D01*
X-18000Y-10000D02*
X-15100Y-12900D01*
X25900Y19600D02*
X29000Y16500D01*
X25900Y19600D02*
Y23870D01*
X26000Y23970D01*
X57244Y44756D02*
X58756Y43244D01*
X39192Y6000D02*
X42956Y9764D01*
X37000Y6000D02*
X39192D01*
X56000Y39511D02*
Y42000D01*
X53465Y36977D02*
X56000Y39511D01*
X48000Y39500D02*
X51000Y42500D01*
X48000Y38823D02*
Y39500D01*
X56400Y51100D02*
X69961D01*
X54000Y53500D02*
X56400Y51100D01*
X52500Y52500D02*
X55100Y49900D01*
X51000Y51500D02*
X53800Y48700D01*
X45500Y44000D02*
X49000Y47500D01*
X49544Y49741D02*
Y95456D01*
X45003Y45200D02*
X49544Y49741D01*
X48000Y50000D02*
Y94500D01*
X44400Y46400D02*
X48000Y50000D01*
X46500Y51000D02*
Y93500D01*
X44000Y48500D02*
X46500Y51000D01*
X42200Y45200D02*
X45003D01*
X44000Y44000D02*
X45500D01*
X41400Y46400D02*
X44400D01*
X39600Y42600D02*
X42200Y45200D01*
X39600Y39130D02*
Y42600D01*
X37500Y42500D02*
X41400Y46400D01*
X37500Y40000D02*
Y42500D01*
X48000Y38823D02*
X49847Y36977D01*
X38700Y38230D02*
X39600Y39130D01*
X38700Y34204D02*
Y38230D01*
X44500Y52500D02*
Y84000D01*
X35400Y43400D02*
X44500Y52500D01*
X35400Y34720D02*
Y43400D01*
X43000Y53000D02*
Y81500D01*
X34000Y44000D02*
X43000Y53000D01*
X10000Y25000D02*
X12500Y27500D01*
X18970Y14000D02*
X30489D01*
X18370Y14600D02*
X18970Y14000D01*
X16630Y14600D02*
X18370D01*
X16030Y14000D02*
X16630Y14600D01*
X18000Y17500D02*
X22500D01*
X27541Y9100D02*
X36141Y500D01*
X12130Y9100D02*
X27541D01*
X11530Y8500D02*
X12130Y9100D01*
X10500Y8500D02*
X11530D01*
X9500Y9500D02*
X10500Y8500D01*
X27000Y7000D02*
X35000Y-1000D01*
X67315Y16724D02*
X69539Y14500D01*
X65500Y29524D02*
Y32000D01*
X63140Y27164D02*
X65500Y29524D01*
X35997Y22988D02*
X39129Y19856D01*
X42611Y-8389D02*
Y-4500D01*
X49847Y2735D01*
X38976Y3000D02*
X44348Y8372D01*
X17500Y12500D02*
X31773D01*
X35997Y16724D01*
X33812Y11756D02*
X37389Y15332D01*
X43100Y35372D02*
X45740Y32731D01*
X44500Y39539D02*
X48524Y35515D01*
X58756Y40744D02*
Y43244D01*
Y40744D02*
X59500Y40000D01*
X-19000Y11000D02*
Y13000D01*
Y11000D02*
X-18000Y10000D01*
X-13000Y-14000D02*
Y-10906D01*
X70900Y31400D02*
X73256Y33756D01*
X66000Y38376D02*
Y39894D01*
X58964Y31340D02*
X66000Y38376D01*
X68100Y37692D02*
Y42370D01*
X60356Y29948D02*
X68100Y37692D01*
X66870Y43600D02*
X68100Y42370D01*
X63530Y42000D02*
X65130Y43600D01*
X62500Y42000D02*
X63530D01*
X65130Y43600D02*
X66870D01*
X66000Y39894D02*
Y41500D01*
X71512Y34512D02*
Y37000D01*
X69500Y32500D02*
X71512Y34512D01*
X69500Y27956D02*
Y32500D01*
X70900Y26573D02*
Y31400D01*
X73000Y29000D02*
Y30500D01*
X64531Y25772D02*
X68000Y29240D01*
X65923Y24380D02*
X69500Y27956D01*
X67315Y22988D02*
X70900Y26573D01*
X65923Y24380D02*
X66047D01*
X65923D02*
X65923D01*
X65923Y24380D02*
X65923Y24380D01*
X41000Y83500D02*
X43000Y81500D01*
X35400Y34720D02*
X41564Y28556D01*
X64904Y8000D02*
X68000D01*
X61748Y11156D02*
X64904Y8000D01*
X66000Y-2244D02*
X66756D01*
X61244D02*
X66756D01*
X61200Y-2200D02*
X61244Y-2244D01*
X64500Y-1000D02*
X65500D01*
X77000Y20000D02*
X78500Y21500D01*
X78000Y29000D02*
Y29500D01*
X72500Y23500D02*
X78000Y29000D01*
X70611Y23500D02*
X72500D01*
X79121Y26621D02*
X81121D01*
X75000Y22500D02*
X79121Y26621D01*
X65923Y15332D02*
X66195D01*
X65923D02*
X65923D01*
X65923Y15332D02*
X65923Y15332D01*
X68777Y21665D02*
X70611Y23500D01*
X84879Y30379D02*
X86000Y31500D01*
X61000Y43500D02*
X62500Y42000D01*
X84879Y30379D02*
X90000Y25258D01*
Y20961D02*
Y25258D01*
X85000Y20961D02*
Y26500D01*
X80879Y30621D02*
X85000Y26500D01*
X80879Y30621D02*
Y33879D01*
X54000Y53500D02*
Y85000D01*
X56000Y87000D01*
Y88500D01*
X54900Y89600D02*
X56000Y88500D01*
X53900Y89600D02*
X54900D01*
X53000Y90500D02*
X53900Y89600D01*
X53000Y90500D02*
Y98500D01*
X56000Y101500D02*
Y111000D01*
X55000Y112000D02*
X56000Y111000D01*
X47000Y112000D02*
X55000D01*
X44500Y109500D02*
X47000Y112000D01*
X53000Y98500D02*
X56000Y101500D01*
X49215Y98285D02*
X51000Y96500D01*
X48465Y98285D02*
X49215D01*
X43861Y103639D02*
X45646Y101854D01*
Y101104D02*
Y101854D01*
X52500Y86500D02*
X53500Y87500D01*
X44000D02*
X45000Y88500D01*
Y92500D01*
X52500Y52500D02*
Y86500D01*
X57500Y86000D02*
Y94000D01*
X41000Y34688D02*
Y36000D01*
Y34688D02*
X44348Y31340D01*
X38700Y34204D02*
X42956Y29948D01*
X102500Y-11500D02*
Y5500D01*
X100500Y7500D02*
X102500Y5500D01*
X86000Y7500D02*
X100500D01*
X51358Y-11500D02*
X67500D01*
X33000D02*
X34500D01*
Y-9827D01*
Y-12000D02*
Y-11500D01*
X51000Y51500D02*
Y96500D01*
X45646Y101104D02*
X48465Y98285D01*
X43920Y101080D02*
X49544Y95456D01*
X43979Y98521D02*
X48000Y94500D01*
X44038Y95962D02*
X46500Y93500D01*
X44500Y107000D02*
Y109500D01*
X43698Y106198D02*
X44500Y107000D01*
X40214Y106198D02*
X43698D01*
X40214Y103639D02*
X43861D01*
X40214Y101080D02*
X43920D01*
X40214Y98521D02*
X43979D01*
X40214Y95962D02*
X44038D01*
X44098Y93402D02*
X45000Y92500D01*
X40214Y93402D02*
X44098D01*
X35000Y-1000D02*
X40544D01*
X36141Y500D02*
X39260D01*
X40544Y-1000D02*
X47132Y5589D01*
X39260Y500D02*
X45740Y6981D01*
X63500Y39500D02*
X64340D01*
X57572Y32731D02*
X64340Y39500D01*
X59500Y37500D02*
Y40000D01*
X30489Y14000D02*
X34535Y18047D01*
X73039Y-461D02*
X73500Y0D01*
X73039Y-5500D02*
Y-1461D01*
X73500Y2543D02*
Y6461D01*
X68000Y-1000D02*
X73500D01*
X66756Y-2244D02*
X68000Y-1000D01*
X69043Y2543D02*
X73500D01*
X65500Y-1000D02*
X69043Y2543D01*
X59985Y-1000D02*
X64500D01*
X-3000Y20000D02*
X500Y16500D01*
X34000Y7000D02*
X34624D01*
X40172Y12548D01*
X33201Y23000D02*
X34535Y21665D01*
X57572Y6981D02*
X60452Y4100D01*
X60000Y1500D02*
Y2000D01*
X59768D02*
X60000D01*
X56180Y5589D02*
X59768Y2000D01*
X58400Y-2200D02*
X61200D01*
X53465Y2735D02*
X58400Y-2200D01*
X54788Y4197D02*
X59985Y-1000D01*
X56180Y34180D02*
X59500Y37500D01*
X56180Y34123D02*
Y34180D01*
X19256Y127000D02*
Y127144D01*
X5312Y101800D02*
Y101856D01*
X19256Y127144D02*
Y127300D01*
X27500Y42552D02*
Y47500D01*
X25660Y49340D02*
X27500Y47500D01*
X19624Y49340D02*
X25660D01*
X18358Y-12000D02*
X34500D01*
X88358D02*
X104500D01*
X19100Y127300D02*
X19256D01*
X21039Y83500D02*
Y86217D01*
X19956Y87300D02*
X21039Y86217D01*
X34500Y-9827D02*
X48524Y4197D01*
X19700Y87300D02*
X19956D01*
X16856Y127000D02*
X19256D01*
X19400D01*
X20900D01*
X48443Y126943D02*
X49300Y127800D01*
X53048Y19856D02*
X61748Y28556D01*
X51656Y15680D02*
Y19856D01*
X49456Y22056D02*
X51656Y19856D01*
X53048D01*
X58056Y9056D02*
X58280D01*
X58964Y8372D01*
X41564Y11156D02*
X45000Y14500D01*
X-4112Y80756D02*
Y82100D01*
X11000Y67299D02*
X27000D01*
X30500Y25500D02*
X33485D01*
X35997Y22988D01*
X-3687Y60356D02*
Y60443D01*
X-3713Y60356D02*
X-3687D01*
X-13400Y60500D02*
X-4752Y60356D01*
X-3713Y60339D01*
X-3689Y60338D02*
X-3688D01*
X-3713Y58843D02*
X-3688Y60338D01*
X-3713Y60339D02*
Y60356D01*
Y60339D02*
X-3689Y60338D01*
X-14736Y62780D02*
X-11544D01*
X-16644Y60356D02*
X-16344D01*
Y53331D02*
X-16311D01*
Y45457D02*
X-14844D01*
X-3713Y38343D02*
Y39157D01*
X-3800Y38256D02*
X-3713Y38343D01*
X-3800Y37600D02*
Y38256D01*
X-15988Y34444D02*
Y37200D01*
X-14844D01*
X63140Y27164D02*
X63164D01*
X13000Y7000D02*
X27000D01*
X136500Y45500D02*
X141000Y41000D01*
Y27300D02*
Y41000D01*
X137500Y23800D02*
X141000Y27300D01*
X89000Y29000D02*
X93500Y24500D01*
X90000Y10500D02*
X93500Y14000D01*
Y24500D01*
X-6212Y101212D02*
X-5500Y100500D01*
X-6212Y101212D02*
Y102800D01*
Y103356D01*
X-5500Y100500D02*
X-2000D01*
X-6212Y102800D02*
X-4012Y105000D01*
X-2000D01*
X-4112Y82100D02*
X-2500Y80488D01*
Y79500D02*
Y80488D01*
Y79500D02*
X-700D01*
X-100Y78900D01*
X-4112Y82100D02*
X-3000Y83212D01*
X-2000Y85000D02*
X0D01*
X-4112Y82888D02*
X-2000Y85000D01*
X-4112Y82100D02*
Y82888D01*
X51656Y15680D02*
X58280Y9056D01*
X42756Y-15244D02*
X54000Y-4000D01*
X68000D01*
Y29240D02*
Y35000D01*
X68500D01*
X71000Y37000D02*
X71512D01*
X80879Y33879D02*
Y38485D01*
X86000Y31500D02*
Y35061D01*
X89000Y29000D02*
Y33758D01*
X73000Y30500D02*
X78000Y35500D01*
Y39667D01*
X73000Y39500D02*
X73012D01*
X73256Y33756D02*
Y39744D01*
X73012Y39500D02*
X73256Y39744D01*
X75500Y38500D02*
Y40000D01*
X75000Y47758D02*
X89000Y33758D01*
X75000Y47758D02*
Y49433D01*
X69961Y51100D02*
X86000Y35061D01*
X55100Y49900D02*
X69464D01*
X80879Y38485D01*
X53800Y48700D02*
X68967D01*
X78000Y39667D01*
X49000Y47500D02*
X68000D01*
X75500Y40000D01*
X60452Y4100D02*
X63900D01*
X60356Y9764D02*
X64120Y6000D01*
X68500D01*
X63900Y4100D02*
X64000Y4000D01*
Y3500D02*
Y4000D01*
X-20500Y27500D02*
X-18500Y29500D01*
X6500D01*
X9000Y32000D01*
X22500D01*
D11*
X114669Y23646D02*
D03*
D12*
X129236D02*
D03*
D13*
X105000Y31500D02*
D03*
Y16500D02*
D03*
D14*
X65600Y86000D02*
D03*
X59000D02*
D03*
X106500Y46000D02*
D03*
X99900D02*
D03*
X136500Y45500D02*
D03*
X129900D02*
D03*
X136500Y40000D02*
D03*
X129900D02*
D03*
D15*
X90000Y16039D02*
D03*
Y20961D02*
D03*
X85000Y16039D02*
D03*
Y20961D02*
D03*
D16*
X84879Y30379D02*
D03*
X81121Y26621D02*
D03*
X80879Y33879D02*
D03*
X77121Y30121D02*
D03*
D17*
X95350Y772D02*
D03*
D18*
X73500Y2543D02*
D03*
Y-1000D02*
D03*
D19*
X4812Y102800D02*
D03*
X-6212D02*
D03*
X6912Y82100D02*
D03*
X-4112D02*
D03*
D20*
X59000Y119000D02*
D03*
Y136600D02*
D03*
D21*
X87500Y-18299D02*
D03*
X103500D02*
D03*
X87358Y-12000D02*
D03*
X103500D02*
D03*
X27000Y67299D02*
D03*
X11000D02*
D03*
X27142Y61000D02*
D03*
X11000D02*
D03*
X34500Y-12000D02*
D03*
X18358D02*
D03*
X34500Y-18299D02*
D03*
X18500D02*
D03*
X69000Y-12000D02*
D03*
X52858D02*
D03*
X69000Y-18299D02*
D03*
X53000D02*
D03*
D22*
X45300Y126943D02*
D03*
X20900Y127000D02*
D03*
D23*
X-3687Y60443D02*
D03*
X-3800Y37600D02*
D03*
D24*
X-13400Y60500D02*
D03*
Y37200D02*
D03*
D25*
X-16311Y45457D02*
D03*
Y53331D02*
D03*
D26*
X-4500Y46441D02*
D03*
Y43882D02*
D03*
Y49000D02*
D03*
Y51559D02*
D03*
Y54118D02*
D03*
D27*
X53465Y2735D02*
D03*
D28*
X54788Y4197D02*
D03*
X56180Y5589D02*
D03*
X57572Y6981D02*
D03*
X58964Y8372D02*
D03*
X60356Y9764D02*
D03*
X61748Y11156D02*
D03*
X63140Y12548D02*
D03*
X64531Y13940D02*
D03*
X65923Y15332D02*
D03*
X67315Y16724D02*
D03*
X48524Y35515D02*
D03*
X47132Y34123D02*
D03*
X45740Y32731D02*
D03*
X44348Y31340D02*
D03*
X42956Y29948D02*
D03*
X41564Y28556D02*
D03*
X40172Y27164D02*
D03*
X38781Y25772D02*
D03*
X37389Y24380D02*
D03*
X35997Y22988D02*
D03*
D29*
X68777Y18047D02*
D03*
X49847Y36977D02*
D03*
X34535Y21665D02*
D03*
D30*
X68777D02*
D03*
X53465Y36977D02*
D03*
X34535Y18047D02*
D03*
X49847Y2735D02*
D03*
D31*
X67315Y22988D02*
D03*
X65923Y24380D02*
D03*
X64531Y25772D02*
D03*
X63140Y27164D02*
D03*
X61748Y28556D02*
D03*
X60356Y29948D02*
D03*
X58964Y31340D02*
D03*
X57572Y32731D02*
D03*
X56180Y34123D02*
D03*
X54788Y35515D02*
D03*
X35997Y16724D02*
D03*
X37389Y15332D02*
D03*
X38781Y13940D02*
D03*
X40172Y12548D02*
D03*
X41564Y11156D02*
D03*
X42956Y9764D02*
D03*
X44348Y8372D02*
D03*
X45740Y6981D02*
D03*
X47132Y5589D02*
D03*
X48524Y4197D02*
D03*
D32*
X51656Y19856D02*
D03*
D33*
X19624Y49340D02*
D03*
Y45600D02*
D03*
Y41860D02*
D03*
X10176D02*
D03*
Y45600D02*
D03*
D34*
Y49340D02*
D03*
D35*
X-12094Y-10000D02*
D03*
X-12094Y10000D02*
D03*
D36*
X-18000Y-10000D02*
D03*
X-18000Y10000D02*
D03*
D37*
X73539Y6500D02*
D03*
X78461D02*
D03*
X73539Y-5500D02*
D03*
X78461D02*
D03*
X21039Y83500D02*
D03*
X25961D02*
D03*
D38*
X40214Y90843D02*
D03*
D39*
Y93402D02*
D03*
Y95962D02*
D03*
Y98521D02*
D03*
Y101080D02*
D03*
Y103639D02*
D03*
Y106198D02*
D03*
Y108757D02*
D03*
X16986Y90843D02*
D03*
Y93402D02*
D03*
Y95962D02*
D03*
Y98521D02*
D03*
Y101080D02*
D03*
Y103639D02*
D03*
Y106198D02*
D03*
Y108757D02*
D03*
D40*
X28600Y99800D02*
D03*
D41*
X129995Y137005D02*
D03*
X136500Y130500D02*
D03*
D42*
X112287Y38000D02*
D03*
Y42000D02*
D03*
Y46000D02*
D03*
X123500D02*
D03*
Y42000D02*
D03*
D43*
Y38000D02*
D03*
D44*
X137500Y23800D02*
D03*
Y33000D02*
D03*
D45*
X106000Y38000D02*
D03*
X99000D02*
D03*
Y51500D02*
D03*
X106000D02*
D03*
D46*
X16657Y35000D02*
D03*
X11343D02*
D03*
D47*
X69000Y130500D02*
D03*
Y137100D02*
D03*
D48*
X30350Y10350D02*
X35190D01*
X16150D02*
X30350D01*
X30500D01*
X30000Y10000D02*
X30350Y10350D01*
X2000Y61000D02*
X11000D01*
X27142D01*
X10342Y34500D02*
X11343Y33500D01*
X6500Y34500D02*
X10342D01*
X4000Y37000D02*
X6500Y34500D01*
X14000Y12500D02*
X16150Y10350D01*
X-5000Y12500D02*
X14000D01*
X-7500Y15000D02*
X-5000Y12500D01*
X-14500Y15000D02*
X-7500D01*
X-18000Y18500D02*
X-14500Y15000D01*
X-18000Y18500D02*
Y20000D01*
X4000Y37000D02*
Y44000D01*
X1559Y46441D02*
X4000Y44000D01*
X-4500Y46441D02*
X1559D01*
X5348Y42652D02*
Y45152D01*
X1500Y49000D02*
X5348Y45152D01*
X-4500Y49000D02*
X1500D01*
X6140Y41860D02*
X10176D01*
X5348Y42652D02*
X6140Y41860D01*
X-4500Y51559D02*
X7957D01*
X10176Y49340D01*
X35190Y10350D02*
X38781Y13940D01*
X-2500Y25000D02*
Y25343D01*
X157Y28000D01*
X7500D01*
X10150Y30650D02*
X19350D01*
X22500Y27500D01*
X7500Y28000D02*
X10150Y30650D01*
X85000Y16039D02*
X90000D01*
D49*
X99000Y51500D02*
Y64500D01*
X86000Y77500D02*
X99000Y64500D01*
X76000Y95500D02*
X77500Y94000D01*
X76000Y95500D02*
Y115000D01*
X64500Y126500D02*
X76000Y115000D01*
X64500Y126500D02*
Y137100D01*
X15965Y54118D02*
X16000D01*
X-4500D02*
X15965D01*
Y54465D01*
Y46535D02*
Y54118D01*
X16900Y45600D02*
X19624D01*
X15965Y46535D02*
X16900Y45600D01*
X15965Y54465D02*
X16000Y54500D01*
X118Y43882D02*
X1500Y42500D01*
X-4500Y43882D02*
X118D01*
X99900Y45500D02*
X103400Y42000D01*
X112287D01*
X123500Y46000D02*
X129400D01*
X132900Y42500D02*
X134000D01*
X136500Y40000D01*
X129900Y45500D02*
X132900Y42500D01*
X129400Y46000D02*
X129900Y45500D01*
X123500Y42000D02*
X127900D01*
X129900Y40000D01*
X106000Y38000D02*
X112287D01*
X118000Y42000D02*
X123500D01*
X106500Y46000D02*
X112287D01*
X135000Y35500D02*
X137500Y33000D01*
X130000Y35500D02*
X135000D01*
X112287Y26028D02*
Y38000D01*
X105000Y16500D02*
Y24000D01*
X106646Y25646D01*
X114669D01*
X105000Y31500D02*
X109000D01*
X99000Y46900D02*
Y51500D01*
X69500Y-7500D02*
X70354Y-8354D01*
X72239D01*
X72859Y-8975D01*
X73672D01*
D50*
X65600Y86000D02*
X70000D01*
X99950Y69450D02*
X102500Y66900D01*
Y57000D02*
Y66900D01*
X123000Y30000D02*
X129500D01*
X123000Y29882D02*
Y30000D01*
Y25500D02*
X127382D01*
X123000Y21000D02*
X126591D01*
X62500Y89100D02*
X65600Y86000D01*
X62500Y89100D02*
Y99000D01*
X61000Y100500D02*
X62500Y99000D01*
X61000Y100500D02*
Y106000D01*
X11000Y77000D02*
Y90818D01*
X13584Y93402D01*
X16986D01*
X5000Y103639D02*
X16986D01*
X100000Y69500D02*
Y71500D01*
X70000Y86000D02*
X85500D01*
X100000Y71500D01*
D51*
X64500Y137100D02*
X69000D01*
X59500D02*
X64500D01*
X136500Y130500D02*
X139000Y128000D01*
Y118000D02*
Y128000D01*
X69000Y130500D02*
X70500Y129000D01*
X82500D01*
D52*
X123500Y36200D02*
Y38000D01*
X122200Y34900D02*
X123500Y36200D01*
X114900Y34900D02*
X122200D01*
X107114Y34800D02*
X109900D01*
X106914Y35000D02*
X107114Y34800D01*
X102000Y35000D02*
X106914D01*
X99000Y38000D02*
X102000Y35000D01*
X28000Y23000D02*
X33201D01*
D53*
X24000Y127000D02*
X28000Y131000D01*
X2200Y95200D02*
X4700D01*
X16800Y87300D02*
Y90631D01*
X16986Y112886D02*
X19000Y114900D01*
X16986Y109500D02*
Y112886D01*
X129391Y23800D02*
X137500D01*
D54*
X8500Y88000D02*
Y91500D01*
X6912Y86412D02*
X8500Y88000D01*
X6912Y82100D02*
Y86412D01*
X4700Y95200D02*
X10580Y101080D01*
X6200Y92700D02*
X12021Y98521D01*
X6200Y91700D02*
Y92700D01*
X5000Y90500D02*
X6200Y91700D01*
X8500Y91500D02*
X12962Y95962D01*
X16986D01*
X12021Y98521D02*
X16986D01*
X10580Y101080D02*
X16986D01*
X7500Y108500D02*
X8500D01*
X10802Y106198D01*
X16986D01*
D55*
X-15700Y95200D02*
X2200D01*
X-10600Y90500D02*
X5000D01*
X-15500Y85600D02*
X-10600Y90500D01*
X45300Y126943D02*
X48443D01*
D56*
X9000Y75000D02*
X11000Y77000D01*
X-15100Y75000D02*
X9000D01*
X-12800Y108500D02*
X8500D01*
X-15700Y105600D02*
X-12800Y108500D01*
X13900Y87300D02*
X16800D01*
X19700D01*
D57*
X19400Y115800D02*
Y127000D01*
D58*
X19256Y127144D02*
X19400Y127000D01*
X19100Y127300D02*
X19256Y127144D01*
X20600Y127300D02*
Y130600D01*
X122047Y129058D02*
X129995Y137005D01*
X122047Y122047D02*
Y129058D01*
X20600Y130600D02*
X26500Y136500D01*
X82500Y129000D02*
Y135500D01*
X59000Y136600D02*
X59500Y137100D01*
X26500Y136500D02*
X59000D01*
D59*
X28600Y99800D02*
Y104131D01*
Y108600D01*
D60*
X10176Y45600D02*
X13400D01*
X15000Y44000D01*
Y39500D02*
Y44000D01*
X14000Y38500D02*
X15000Y39500D01*
X7000Y38500D02*
X14000D01*
X-7500Y25000D02*
X-2500D01*
D61*
X87500Y94000D02*
D03*
X77500D02*
D03*
X67500D02*
D03*
D62*
X57500D02*
D03*
D63*
X130000Y99870D02*
D03*
Y90028D02*
D03*
Y80185D02*
D03*
Y70342D02*
D03*
D64*
Y60500D02*
D03*
D65*
X12500Y17500D02*
D03*
Y27500D02*
D03*
X22500Y17500D02*
D03*
Y27500D02*
D03*
D66*
X0Y122047D02*
D03*
X122047D02*
D03*
Y0D02*
D03*
X0D02*
D03*
D67*
X-14736Y62780D02*
D03*
Y35220D02*
D03*
D68*
X-3713Y58843D02*
D03*
Y39157D02*
D03*
D69*
X51000Y106000D02*
D03*
D70*
X61000D02*
D03*
X71000D02*
D03*
X81000D02*
D03*
X-15700Y95600D02*
D03*
Y85600D02*
D03*
Y75600D02*
D03*
D71*
Y105600D02*
D03*
D72*
X3000Y-17500D02*
D03*
D73*
X-2000D02*
D03*
X-7000D02*
D03*
D74*
X2500Y25000D02*
D03*
D75*
Y20000D02*
D03*
X-2500Y25000D02*
D03*
Y20000D02*
D03*
X-7500Y25000D02*
D03*
Y20000D02*
D03*
X-12500Y25000D02*
D03*
Y20000D02*
D03*
X-17500Y25000D02*
D03*
Y20000D02*
D03*
X39000Y131000D02*
D03*
X28000D02*
D03*
D76*
X82500Y129000D02*
D03*
D77*
X92343D02*
D03*
D78*
X81500Y136500D02*
D03*
D79*
X93500D02*
D03*
D80*
X95000Y105000D02*
D03*
X30000Y10000D02*
D03*
X2000Y61000D02*
D03*
X86000Y77500D02*
D03*
X70000Y86000D02*
D03*
X52000Y14000D02*
D03*
X100000Y69500D02*
D03*
X102500Y57000D02*
D03*
X22500Y32000D02*
D03*
X44000Y39500D02*
D03*
X69000Y-3500D02*
D03*
X74500Y14500D02*
D03*
X60000Y-6500D02*
D03*
X29000Y16500D02*
D03*
X57000Y44500D02*
D03*
X16000Y54500D02*
D03*
X37000Y6000D02*
D03*
X38000Y3000D02*
D03*
X59000Y20500D02*
D03*
X44000D02*
D03*
X47500Y42500D02*
D03*
X51000Y43500D02*
D03*
X43500Y48500D02*
D03*
X1500Y42500D02*
D03*
X17500Y12500D02*
D03*
X69000Y6000D02*
D03*
X-18000Y14000D02*
D03*
X-13000Y-14000D02*
D03*
X66000Y41500D02*
D03*
X138500Y93500D02*
D03*
X65500Y32000D02*
D03*
X44000Y84000D02*
D03*
X41000Y83500D02*
D03*
X78500Y21500D02*
D03*
X73000Y29000D02*
D03*
X53500Y87500D02*
D03*
X44000D02*
D03*
X37500Y40000D02*
D03*
X41000Y36000D02*
D03*
X117900Y37800D02*
D03*
X114900Y34900D02*
D03*
X109900Y34800D02*
D03*
X81000Y16000D02*
D03*
X61000Y43500D02*
D03*
X13900Y87300D02*
D03*
X24269Y99800D02*
D03*
Y104131D02*
D03*
X-100Y78900D02*
D03*
X0Y82000D02*
D03*
X-2000Y99100D02*
D03*
X63500Y39500D02*
D03*
X34000Y7000D02*
D03*
X28000Y23000D02*
D03*
X60000Y2000D02*
D03*
X16800Y87300D02*
D03*
X19400Y118200D02*
D03*
X19300Y121700D02*
D03*
X19500Y114900D02*
D03*
X19700Y87300D02*
D03*
X107500Y10500D02*
D03*
X40500Y122000D02*
D03*
X34500Y118000D02*
D03*
X40500D02*
D03*
X45000Y118000D02*
D03*
X40500Y114000D02*
D03*
X87500Y69000D02*
D03*
X35500Y87500D02*
D03*
Y84000D02*
D03*
X133500Y11000D02*
D03*
X91000Y-3000D02*
D03*
X95500Y-18299D02*
D03*
X51500Y30500D02*
D03*
X60500Y-18299D02*
D03*
X34500Y122000D02*
D03*
X30000Y110000D02*
D03*
X28500Y117500D02*
D03*
X26500Y110000D02*
D03*
X33500Y89906D02*
D03*
X31000Y87500D02*
D03*
X33000Y81000D02*
D03*
X31000Y84000D02*
D03*
X76000Y58500D02*
D03*
X34000Y127000D02*
D03*
X34000Y74500D02*
D03*
X27500Y87500D02*
D03*
X28500Y122000D02*
D03*
X12000Y137000D02*
D03*
X19500Y137000D02*
D03*
X4000Y137000D02*
D03*
X0Y85000D02*
D03*
X76000Y69000D02*
D03*
X-12000Y130500D02*
D03*
X-2000Y105000D02*
D03*
X31500Y44000D02*
D03*
X-12000Y114000D02*
D03*
X-2000Y102000D02*
D03*
X21000Y78500D02*
D03*
X0Y70500D02*
D03*
X-7000D02*
D03*
X30500Y25500D02*
D03*
X26500Y-2000D02*
D03*
X11000Y-11500D02*
D03*
X-15000Y0D02*
D03*
X16000Y1500D02*
D03*
X28500Y72500D02*
D03*
X32931Y95469D02*
D03*
X28600D02*
D03*
X24269D02*
D03*
X32931Y99800D02*
D03*
X28600D02*
D03*
X32931Y104131D02*
D03*
X28600D02*
D03*
X139000Y118000D02*
D03*
Y120500D02*
D03*
X16000Y-5000D02*
D03*
X13000Y7000D02*
D03*
X10000Y9000D02*
D03*
X118000Y42000D02*
D03*
X130000Y35500D02*
D03*
X123000Y30000D02*
D03*
Y25500D02*
D03*
Y21000D02*
D03*
X109000Y31500D02*
D03*
X92500Y121500D02*
D03*
X12500Y113500D02*
D03*
X49500Y-2000D02*
D03*
X68500Y35000D02*
D03*
X71000Y37000D02*
D03*
X75500Y37500D02*
D03*
X73000Y39500D02*
D03*
X75000Y50000D02*
D03*
X64000Y3500D02*
D03*
X7000Y38500D02*
D03*
X66500Y-7500D02*
D03*
D81*
X42611Y-8389D02*
D03*
M02*
